<?xml version="1.0" encoding="UTF-8" standalone="no"?>
<svg
   xmlns:dc="http://purl.org/dc/elements/1.1/"
   xmlns:cc="http://creativecommons.org/ns#"
   xmlns:rdf="http://www.w3.org/1999/02/22-rdf-syntax-ns#"
   xmlns:svg="http://www.w3.org/2000/svg"
   xmlns="http://www.w3.org/2000/svg"
   viewBox="0 0 474.03467 568.52264"
   height="568.52264"
   width="474.03467"
   xml:space="preserve"
   id="svg2"
   version="1.1"><metadata
     id="metadata8"><rdf:RDF><cc:Work
         rdf:about=""><dc:format>image/svg+xml</dc:format><dc:type
           rdf:resource="http://purl.org/dc/dcmitype/StillImage" /><dc:title></dc:title></cc:Work></rdf:RDF></metadata><defs
     id="defs6" /><g
     transform="matrix(1.3333333,0,0,-1.3333333,0,568.52267)"
     id="g10"><g
       transform="translate(0.598,213.196)"
       id="g12"><g
         id="g14"><g
           id="g16"><g
             id="g18"><g
               id="g20"><path
                 id="path22"
                 style="fill:#b3ffb3;fill-opacity:1;fill-rule:nonzero;stroke:none"
                 d="m 274.255,35.43344 v 63.77991 h 55.98555 V 35.43344 Z" /></g><g
               id="g24"><path
                 id="path26"
                 style="fill:#ffb3b3;fill-opacity:1;fill-rule:nonzero;stroke:none"
                 d="M 274.255,-99.21335 V 7.08708 h 55.98555 V -99.21335 Z" /></g><g
               id="g28"><path
                 id="path30"
                 style="fill:#d9d9d9;fill-opacity:1;fill-rule:nonzero;stroke:none"
                 d="m 0,113.3876 252.99573,74.4095 c 29.74623,0 53.85962,-24.1134 53.85962,-53.85962 l 0.70727,-7.79428 22.67793,-26.92985 v -198.4267 l -22.67793,-26.92985 v -7.79648 c 0,-29.74623 -24.1134,-53.85962 -53.85962,-53.85962 L 0,-113.3876 v -99.21343 H 354.33508 V 212.60103 H 0 Z" /></g><g
               id="g32"><path
                 id="path34"
                 style="fill:none;stroke:#000000;stroke-width:1.19553006;stroke-linecap:butt;stroke-linejoin:miter;stroke-miterlimit:10;stroke-dasharray:none;stroke-opacity:1"
                 d="m 0,113.3876 252.99573,74.4095 c 29.74623,0 53.85962,-24.1134 53.85962,-53.85962 l 0.70727,-7.79428 22.67793,-26.92985 v -198.4267 l -22.67793,-26.92985 v -7.79648 c 0,-29.74623 -24.1134,-53.85962 -53.85962,-53.85962 L 0,-113.3876" /></g><g
               id="g36"><path
                 id="path38"
                 style="fill:#cceffc;fill-opacity:1;fill-rule:nonzero;stroke:#000000;stroke-width:1.19553006;stroke-linecap:butt;stroke-linejoin:miter;stroke-miterlimit:10;stroke-dasharray:none;stroke-opacity:1"
                 d="m 224.74672,-146.01393 c -52.15541,37.07658 -80.57722,99.18797 -74.54678,162.8958 4.90417,51.8137 32.12593,98.96383 74.54678,129.11877 l 28.24901,8.48892 c 11.74127,0 21.2592,-9.51793 21.2592,-21.2592 l 7e-5,-266.46065 c 0,-11.74127 -9.51792,-21.2592 -21.2592,-21.2592 z" /></g><g
               id="g40"><path
                 id="path42"
                 style="fill:none;stroke:#000000;stroke-width:1.19553006;stroke-linecap:butt;stroke-linejoin:miter;stroke-miterlimit:10;stroke-dasharray:none;stroke-opacity:1"
                 d="M 0,-212.60103 H 354.33508 V 212.60103 H 0" /></g><g
               id="g44"><g
                 transform="translate(289.238,64.888)"
                 id="g46"><g
                   id="g48"><g
                     transform="translate(-289.836,-278.084)"
                     id="g50"><text
                       id="text54"
                       style="font-variant:normal;font-weight:normal;font-size:9.96259975px;font-family:CMR10;-inkscape-font-specification:CMR10;writing-mode:lr-tb;fill:#000000;fill-opacity:1;fill-rule:nonzero;stroke:none"
                       transform="matrix(1,0,0,-1,289.836,278.084)"><tspan
                         id="tspan52"
                         y="0"
                         x="0 6.7805457 12.315766 20.617601">Pump</tspan></text>
<g
                       transform="translate(289.836,278.084)"
                       id="g56" /></g></g><g
                   transform="translate(-289.238,-64.888)"
                   id="g58" /></g></g><g
               id="g60"><g
                 transform="translate(279.637,-42.52)"
                 id="g62"><g
                   id="g64"><g
                     transform="translate(-280.235,-170.676)"
                     id="g66"><text
                       id="text72"
                       style="font-variant:normal;font-weight:normal;font-size:9.96259975px;font-family:CMR10;-inkscape-font-specification:CMR10;writing-mode:lr-tb;fill:#000000;fill-opacity:1;fill-rule:nonzero;stroke:none"
                       transform="matrix(1,0,0,-1,292.534,170.676)"><tspan
                         id="tspan68"
                         y="0"
                         x="0 7.4719501 11.899329 16.880629">Heat</tspan><tspan
                         id="tspan70"
                         y="11.955"
                         x="-11.222 -6.7946205 -1.5363603 2.6120663 8.1472874 13.128587 18.663807 23.645107 28.072487">exchanger</tspan></text>
<g
                       transform="translate(280.235,170.676)"
                       id="g74" /></g></g><g
                   transform="translate(-279.637,42.52)"
                   id="g76" /></g></g><g
               id="g78"><g
                 transform="translate(181.7,-3.459)"
                 id="g80"><g
                   id="g82"><g
                     transform="translate(-182.298,-209.737)"
                     id="g84"><text
                       id="text88"
                       style="font-variant:normal;font-weight:normal;font-size:9.96259975px;font-family:CMR10;-inkscape-font-specification:CMR10;writing-mode:lr-tb;fill:#000000;fill-opacity:1;fill-rule:nonzero;stroke:none"
                       transform="matrix(1,0,0,-1,182.298,209.737)"><tspan
                         y="0"
                         x="0"
                         id="tspan86">Inner reflector</tspan></text>
<g
                       transform="translate(182.298,209.737)"
                       id="g90" /></g></g><g
                   transform="translate(-181.7,3.459)"
                   id="g92" /></g></g><g
               id="g94"><g
                 transform="translate(38.722,-187.711)"
                 id="g96"><g
                   id="g98"><g
                     transform="translate(-39.32,-25.485)"
                     id="g100"><text
                       id="text104"
                       style="font-variant:normal;font-weight:normal;font-size:9.96259975px;font-family:CMR10;-inkscape-font-specification:CMR10;writing-mode:lr-tb;fill:#000000;fill-opacity:1;fill-rule:nonzero;stroke:none"
                       transform="matrix(1,0,0,-1,39.32,25.485)"><tspan
                         id="tspan102"
                         y="0"
                         x="0 7.7489104 13.284131 17.158587 21.585966">Outer reflector</tspan></text>
<g
                       transform="translate(39.32,25.485)"
                       id="g106" /></g></g><g
                   transform="translate(-38.722,187.711)"
                   id="g108" /></g></g></g></g></g></g></g></svg>