<?xml version="1.0" encoding="utf-8" standalone="no"?>
<!DOCTYPE svg PUBLIC "-//W3C//DTD SVG 1.1//EN"
  "http://www.w3.org/Graphics/SVG/1.1/DTD/svg11.dtd">
<svg xmlns:xlink="http://www.w3.org/1999/xlink" width="383.691176pt" height="364.74375pt" viewBox="0 0 383.691176 364.74375" xmlns="http://www.w3.org/2000/svg" version="1.1">
 <metadata>
  <rdf:RDF xmlns:dc="http://purl.org/dc/elements/1.1/" xmlns:cc="http://creativecommons.org/ns#" xmlns:rdf="http://www.w3.org/1999/02/22-rdf-syntax-ns#">
   <cc:Work>
    <dc:type rdf:resource="http://purl.org/dc/dcmitype/StillImage"/>
    <dc:date>2022-07-18T11:55:15.180095</dc:date>
    <dc:format>image/svg+xml</dc:format>
    <dc:creator>
     <cc:Agent>
      <dc:title>Matplotlib v3.5.1, https://matplotlib.org/</dc:title>
     </cc:Agent>
    </dc:creator>
   </cc:Work>
  </rdf:RDF>
 </metadata>
 <defs>
  <style type="text/css">*{stroke-linejoin: round; stroke-linecap: butt}</style>
 </defs>
 <g id="figure_1">
  <g id="patch_1">
   <path d="M 0 364.74375 
L 383.691176 364.74375 
L 383.691176 0 
L 0 0 
z
" style="fill: #ffffff"/>
  </g>
  <g id="axes_1">
   <g id="patch_2">
    <path d="M 64.6 317.58375 
L 371.5 317.58375 
L 371.5 12.66375 
L 64.6 12.66375 
z
" style="fill: #ffffff"/>
   </g>
   <g id="matplotlib.axis_1">
    <g id="xtick_1">
     <g id="line2d_1">
      <defs>
       <path id="mdc36835afe" d="M 0 0 
L 0 3.5 
" style="stroke: #000000; stroke-width: 0.8"/>
      </defs>
      <g>
       <use xlink:href="#mdc36835afe" x="67.608824" y="317.58375" style="stroke: #000000; stroke-width: 0.8"/>
      </g>
     </g>
     <g id="text_1">
      <!-- 0 -->
      <g transform="translate(63.608824 335.51125)scale(0.16 -0.16)">
       <defs>
        <path id="STIXGeneral-Regular-30" d="M 3046 2112 
Q 3046 1683 2963 1302 
Q 2880 922 2717 602 
Q 2554 282 2266 96 
Q 1978 -90 1600 -90 
Q 1210 -90 915 108 
Q 621 307 461 640 
Q 301 973 227 1350 
Q 154 1728 154 2150 
Q 154 2746 301 3222 
Q 448 3699 790 4012 
Q 1133 4326 1626 4326 
Q 2253 4326 2649 3712 
Q 3046 3098 3046 2112 
z
M 2432 2080 
Q 2432 3091 2217 3625 
Q 2003 4160 1587 4160 
Q 1190 4160 979 3622 
Q 768 3085 768 2106 
Q 768 1120 979 598 
Q 1190 77 1600 77 
Q 2003 77 2217 598 
Q 2432 1120 2432 2080 
z
" transform="scale(0.015625)"/>
       </defs>
       <use xlink:href="#STIXGeneral-Regular-30"/>
      </g>
     </g>
    </g>
    <g id="xtick_2">
     <g id="line2d_2">
      <g>
       <use xlink:href="#mdc36835afe" x="97.697059" y="317.58375" style="stroke: #000000; stroke-width: 0.8"/>
      </g>
     </g>
     <g id="text_2">
      <!-- 1 -->
      <g transform="translate(93.697059 335.51125)scale(0.16 -0.16)">
       <defs>
        <path id="STIXGeneral-Regular-31" d="M 2522 0 
L 755 0 
L 755 96 
Q 1107 115 1235 227 
Q 1363 339 1363 608 
L 1363 3482 
Q 1363 3795 1171 3795 
Q 1082 3795 883 3718 
L 710 3654 
L 710 3744 
L 1856 4326 
L 1914 4307 
L 1914 486 
Q 1914 275 2042 185 
Q 2170 96 2522 96 
L 2522 0 
z
" transform="scale(0.015625)"/>
       </defs>
       <use xlink:href="#STIXGeneral-Regular-31"/>
      </g>
     </g>
    </g>
    <g id="xtick_3">
     <g id="line2d_3">
      <g>
       <use xlink:href="#mdc36835afe" x="127.785294" y="317.58375" style="stroke: #000000; stroke-width: 0.8"/>
      </g>
     </g>
     <g id="text_3">
      <!-- 2 -->
      <g transform="translate(123.785294 335.51125)scale(0.16 -0.16)">
       <defs>
        <path id="STIXGeneral-Regular-32" d="M 3034 877 
L 2688 0 
L 186 0 
L 186 77 
L 1325 1286 
Q 1773 1754 1965 2144 
Q 2157 2534 2157 2950 
Q 2157 3379 1920 3616 
Q 1683 3853 1267 3853 
Q 922 3853 720 3673 
Q 518 3494 326 3021 
L 192 3053 
Q 301 3648 630 3987 
Q 960 4326 1523 4326 
Q 2054 4326 2380 4006 
Q 2707 3686 2707 3200 
Q 2707 2477 1888 1613 
L 832 486 
L 2330 486 
Q 2541 486 2665 569 
Q 2790 653 2944 915 
L 3034 877 
z
" transform="scale(0.015625)"/>
       </defs>
       <use xlink:href="#STIXGeneral-Regular-32"/>
      </g>
     </g>
    </g>
    <g id="xtick_4">
     <g id="line2d_4">
      <g>
       <use xlink:href="#mdc36835afe" x="157.873529" y="317.58375" style="stroke: #000000; stroke-width: 0.8"/>
      </g>
     </g>
     <g id="text_4">
      <!-- 3 -->
      <g transform="translate(153.873529 335.51125)scale(0.16 -0.16)">
       <defs>
        <path id="STIXGeneral-Regular-33" d="M 390 3264 
L 288 3290 
Q 435 3770 748 4048 
Q 1062 4326 1542 4326 
Q 1990 4326 2265 4083 
Q 2541 3840 2541 3450 
Q 2541 2925 1946 2566 
Q 2298 2413 2477 2227 
Q 2758 1914 2758 1402 
Q 2758 890 2464 506 
Q 2246 211 1840 60 
Q 1434 -90 979 -90 
Q 262 -90 262 275 
Q 262 378 339 442 
Q 416 506 525 506 
Q 685 506 915 339 
Q 1197 141 1466 141 
Q 1818 141 2058 425 
Q 2298 710 2298 1120 
Q 2298 1856 1632 2048 
Q 1434 2112 979 2112 
L 979 2202 
Q 1338 2323 1517 2432 
Q 2035 2726 2035 3290 
Q 2035 3610 1852 3776 
Q 1670 3942 1344 3942 
Q 768 3942 390 3264 
z
" transform="scale(0.015625)"/>
       </defs>
       <use xlink:href="#STIXGeneral-Regular-33"/>
      </g>
     </g>
    </g>
    <g id="xtick_5">
     <g id="line2d_5">
      <g>
       <use xlink:href="#mdc36835afe" x="187.961765" y="317.58375" style="stroke: #000000; stroke-width: 0.8"/>
      </g>
     </g>
     <g id="text_5">
      <!-- 4 -->
      <g transform="translate(183.961765 335.51125)scale(0.16 -0.16)">
       <defs>
        <path id="STIXGeneral-Regular-34" d="M 3027 1069 
L 2368 1069 
L 2368 0 
L 1869 0 
L 1869 1069 
L 77 1069 
L 77 1478 
L 2086 4326 
L 2368 4326 
L 2368 1478 
L 3027 1478 
L 3027 1069 
z
M 1869 1478 
L 1869 3674 
L 333 1478 
L 1869 1478 
z
" transform="scale(0.015625)"/>
       </defs>
       <use xlink:href="#STIXGeneral-Regular-34"/>
      </g>
     </g>
    </g>
    <g id="xtick_6">
     <g id="line2d_6">
      <g>
       <use xlink:href="#mdc36835afe" x="218.05" y="317.58375" style="stroke: #000000; stroke-width: 0.8"/>
      </g>
     </g>
     <g id="text_6">
      <!-- 5 -->
      <g transform="translate(214.05 335.51125)scale(0.16 -0.16)">
       <defs>
        <path id="STIXGeneral-Regular-35" d="M 2803 4358 
L 2573 3814 
Q 2534 3731 2400 3731 
L 1158 3731 
L 902 3187 
Q 1606 3053 1920 2896 
Q 2234 2739 2502 2368 
Q 2726 2061 2726 1555 
Q 2726 1094 2576 780 
Q 2426 467 2099 224 
Q 1664 -90 1011 -90 
Q 646 -90 422 19 
Q 198 128 198 307 
Q 198 550 486 550 
Q 717 550 960 352 
Q 1210 147 1414 147 
Q 1747 147 2012 480 
Q 2278 813 2278 1229 
Q 2278 1843 1850 2189 
Q 1293 2637 486 2637 
Q 410 2637 410 2688 
L 416 2720 
L 1114 4237 
L 2438 4237 
Q 2547 4237 2608 4269 
Q 2669 4301 2746 4403 
L 2803 4358 
z
" transform="scale(0.015625)"/>
       </defs>
       <use xlink:href="#STIXGeneral-Regular-35"/>
      </g>
     </g>
    </g>
    <g id="xtick_7">
     <g id="line2d_7">
      <g>
       <use xlink:href="#mdc36835afe" x="248.138235" y="317.58375" style="stroke: #000000; stroke-width: 0.8"/>
      </g>
     </g>
     <g id="text_7">
      <!-- 6 -->
      <g transform="translate(244.138235 335.51125)scale(0.16 -0.16)">
       <defs>
        <path id="STIXGeneral-Regular-36" d="M 2854 4378 
L 2867 4275 
Q 2112 4154 1606 3664 
Q 1101 3174 973 2451 
Q 1344 2739 1786 2739 
Q 2349 2739 2672 2380 
Q 2995 2022 2995 1402 
Q 2995 774 2669 378 
Q 2291 -90 1651 -90 
Q 870 -90 518 557 
Q 218 1107 218 1786 
Q 218 2835 915 3552 
Q 1312 3962 1731 4131 
Q 2150 4301 2854 4378 
z
M 2419 1203 
Q 2419 2445 1555 2445 
Q 1235 2445 1024 2275 
Q 813 2106 813 1702 
Q 813 954 1046 522 
Q 1280 90 1722 90 
Q 2061 90 2240 394 
Q 2419 698 2419 1203 
z
" transform="scale(0.015625)"/>
       </defs>
       <use xlink:href="#STIXGeneral-Regular-36"/>
      </g>
     </g>
    </g>
    <g id="xtick_8">
     <g id="line2d_8">
      <g>
       <use xlink:href="#mdc36835afe" x="278.226471" y="317.58375" style="stroke: #000000; stroke-width: 0.8"/>
      </g>
     </g>
     <g id="text_8">
      <!-- 7 -->
      <g transform="translate(274.226471 335.51125)scale(0.16 -0.16)">
       <defs>
        <path id="STIXGeneral-Regular-37" d="M 2874 4134 
L 1517 -51 
L 1101 -51 
L 2368 3763 
L 992 3763 
Q 717 3763 582 3667 
Q 448 3571 243 3238 
L 128 3296 
L 512 4237 
L 2874 4237 
L 2874 4134 
z
" transform="scale(0.015625)"/>
       </defs>
       <use xlink:href="#STIXGeneral-Regular-37"/>
      </g>
     </g>
    </g>
    <g id="xtick_9">
     <g id="line2d_9">
      <g>
       <use xlink:href="#mdc36835afe" x="308.314706" y="317.58375" style="stroke: #000000; stroke-width: 0.8"/>
      </g>
     </g>
     <g id="text_9">
      <!-- 8 -->
      <g transform="translate(304.314706 335.51125)scale(0.16 -0.16)">
       <defs>
        <path id="STIXGeneral-Regular-38" d="M 2848 992 
Q 2848 499 2505 204 
Q 2163 -90 1587 -90 
Q 1050 -90 704 204 
Q 358 499 358 954 
Q 358 1293 524 1533 
Q 691 1773 1190 2125 
Q 710 2522 553 2765 
Q 397 3008 397 3328 
Q 397 3782 745 4054 
Q 1094 4326 1638 4326 
Q 2106 4326 2410 4060 
Q 2714 3795 2714 3411 
Q 2714 3059 2531 2848 
Q 2349 2637 1856 2374 
Q 2432 1990 2640 1689 
Q 2848 1389 2848 992 
z
M 2272 3411 
Q 2272 3744 2086 3945 
Q 1901 4147 1574 4147 
Q 1248 4147 1059 3977 
Q 870 3808 870 3513 
Q 870 3219 1059 2979 
Q 1248 2739 1670 2490 
Q 1997 2682 2134 2896 
Q 2272 3110 2272 3411 
z
M 1734 1741 
L 1357 1997 
Q 1075 1766 960 1545 
Q 845 1325 845 1011 
Q 845 576 1065 333 
Q 1286 90 1658 90 
Q 1971 90 2166 285 
Q 2362 480 2362 794 
Q 2362 1082 2214 1299 
Q 2067 1517 1734 1741 
z
" transform="scale(0.015625)"/>
       </defs>
       <use xlink:href="#STIXGeneral-Regular-38"/>
      </g>
     </g>
    </g>
    <g id="xtick_10">
     <g id="line2d_10">
      <g>
       <use xlink:href="#mdc36835afe" x="338.402941" y="317.58375" style="stroke: #000000; stroke-width: 0.8"/>
      </g>
     </g>
     <g id="text_10">
      <!-- 9 -->
      <g transform="translate(334.402941 335.51125)scale(0.16 -0.16)">
       <defs>
        <path id="STIXGeneral-Regular-39" d="M 378 -141 
L 358 -13 
Q 1094 115 1603 608 
Q 2112 1101 2304 1882 
Q 1933 1517 1344 1517 
Q 826 1517 509 1875 
Q 192 2234 192 2816 
Q 192 3462 573 3894 
Q 954 4326 1523 4326 
Q 2131 4326 2528 3840 
Q 2938 3328 2938 2522 
Q 2938 1958 2742 1462 
Q 2547 966 2170 621 
Q 1773 262 1395 105 
Q 1018 -51 378 -141 
z
M 2317 2272 
L 2317 2522 
Q 2317 4147 1472 4147 
Q 1171 4147 1005 3930 
Q 909 3802 845 3546 
Q 781 3290 781 3034 
Q 781 2464 995 2128 
Q 1210 1792 1568 1792 
Q 1824 1792 2070 1917 
Q 2317 2042 2317 2272 
z
" transform="scale(0.015625)"/>
       </defs>
       <use xlink:href="#STIXGeneral-Regular-39"/>
      </g>
     </g>
    </g>
    <g id="xtick_11">
     <g id="line2d_11">
      <g>
       <use xlink:href="#mdc36835afe" x="368.491176" y="317.58375" style="stroke: #000000; stroke-width: 0.8"/>
      </g>
     </g>
     <g id="text_11">
      <!-- 10 -->
      <g transform="translate(360.491176 335.51125)scale(0.16 -0.16)">
       <use xlink:href="#STIXGeneral-Regular-31"/>
       <use xlink:href="#STIXGeneral-Regular-30" x="49.999985"/>
      </g>
     </g>
    </g>
    <g id="xtick_12">
     <g id="line2d_12">
      <defs>
       <path id="m3726590617" d="M 0 0 
L 0 2 
" style="stroke: #000000; stroke-width: 0.6"/>
      </defs>
      <g>
       <use xlink:href="#m3726590617" x="73.626471" y="317.58375" style="stroke: #000000; stroke-width: 0.6"/>
      </g>
     </g>
    </g>
    <g id="xtick_13">
     <g id="line2d_13">
      <g>
       <use xlink:href="#m3726590617" x="79.644118" y="317.58375" style="stroke: #000000; stroke-width: 0.6"/>
      </g>
     </g>
    </g>
    <g id="xtick_14">
     <g id="line2d_14">
      <g>
       <use xlink:href="#m3726590617" x="85.661765" y="317.58375" style="stroke: #000000; stroke-width: 0.6"/>
      </g>
     </g>
    </g>
    <g id="xtick_15">
     <g id="line2d_15">
      <g>
       <use xlink:href="#m3726590617" x="91.679412" y="317.58375" style="stroke: #000000; stroke-width: 0.6"/>
      </g>
     </g>
    </g>
    <g id="xtick_16">
     <g id="line2d_16">
      <g>
       <use xlink:href="#m3726590617" x="103.714706" y="317.58375" style="stroke: #000000; stroke-width: 0.6"/>
      </g>
     </g>
    </g>
    <g id="xtick_17">
     <g id="line2d_17">
      <g>
       <use xlink:href="#m3726590617" x="109.732353" y="317.58375" style="stroke: #000000; stroke-width: 0.6"/>
      </g>
     </g>
    </g>
    <g id="xtick_18">
     <g id="line2d_18">
      <g>
       <use xlink:href="#m3726590617" x="115.75" y="317.58375" style="stroke: #000000; stroke-width: 0.6"/>
      </g>
     </g>
    </g>
    <g id="xtick_19">
     <g id="line2d_19">
      <g>
       <use xlink:href="#m3726590617" x="121.767647" y="317.58375" style="stroke: #000000; stroke-width: 0.6"/>
      </g>
     </g>
    </g>
    <g id="xtick_20">
     <g id="line2d_20">
      <g>
       <use xlink:href="#m3726590617" x="133.802941" y="317.58375" style="stroke: #000000; stroke-width: 0.6"/>
      </g>
     </g>
    </g>
    <g id="xtick_21">
     <g id="line2d_21">
      <g>
       <use xlink:href="#m3726590617" x="139.820588" y="317.58375" style="stroke: #000000; stroke-width: 0.6"/>
      </g>
     </g>
    </g>
    <g id="xtick_22">
     <g id="line2d_22">
      <g>
       <use xlink:href="#m3726590617" x="145.838235" y="317.58375" style="stroke: #000000; stroke-width: 0.6"/>
      </g>
     </g>
    </g>
    <g id="xtick_23">
     <g id="line2d_23">
      <g>
       <use xlink:href="#m3726590617" x="151.855882" y="317.58375" style="stroke: #000000; stroke-width: 0.6"/>
      </g>
     </g>
    </g>
    <g id="xtick_24">
     <g id="line2d_24">
      <g>
       <use xlink:href="#m3726590617" x="163.891176" y="317.58375" style="stroke: #000000; stroke-width: 0.6"/>
      </g>
     </g>
    </g>
    <g id="xtick_25">
     <g id="line2d_25">
      <g>
       <use xlink:href="#m3726590617" x="169.908824" y="317.58375" style="stroke: #000000; stroke-width: 0.6"/>
      </g>
     </g>
    </g>
    <g id="xtick_26">
     <g id="line2d_26">
      <g>
       <use xlink:href="#m3726590617" x="175.926471" y="317.58375" style="stroke: #000000; stroke-width: 0.6"/>
      </g>
     </g>
    </g>
    <g id="xtick_27">
     <g id="line2d_27">
      <g>
       <use xlink:href="#m3726590617" x="181.944118" y="317.58375" style="stroke: #000000; stroke-width: 0.6"/>
      </g>
     </g>
    </g>
    <g id="xtick_28">
     <g id="line2d_28">
      <g>
       <use xlink:href="#m3726590617" x="193.979412" y="317.58375" style="stroke: #000000; stroke-width: 0.6"/>
      </g>
     </g>
    </g>
    <g id="xtick_29">
     <g id="line2d_29">
      <g>
       <use xlink:href="#m3726590617" x="199.997059" y="317.58375" style="stroke: #000000; stroke-width: 0.6"/>
      </g>
     </g>
    </g>
    <g id="xtick_30">
     <g id="line2d_30">
      <g>
       <use xlink:href="#m3726590617" x="206.014706" y="317.58375" style="stroke: #000000; stroke-width: 0.6"/>
      </g>
     </g>
    </g>
    <g id="xtick_31">
     <g id="line2d_31">
      <g>
       <use xlink:href="#m3726590617" x="212.032353" y="317.58375" style="stroke: #000000; stroke-width: 0.6"/>
      </g>
     </g>
    </g>
    <g id="xtick_32">
     <g id="line2d_32">
      <g>
       <use xlink:href="#m3726590617" x="224.067647" y="317.58375" style="stroke: #000000; stroke-width: 0.6"/>
      </g>
     </g>
    </g>
    <g id="xtick_33">
     <g id="line2d_33">
      <g>
       <use xlink:href="#m3726590617" x="230.085294" y="317.58375" style="stroke: #000000; stroke-width: 0.6"/>
      </g>
     </g>
    </g>
    <g id="xtick_34">
     <g id="line2d_34">
      <g>
       <use xlink:href="#m3726590617" x="236.102941" y="317.58375" style="stroke: #000000; stroke-width: 0.6"/>
      </g>
     </g>
    </g>
    <g id="xtick_35">
     <g id="line2d_35">
      <g>
       <use xlink:href="#m3726590617" x="242.120588" y="317.58375" style="stroke: #000000; stroke-width: 0.6"/>
      </g>
     </g>
    </g>
    <g id="xtick_36">
     <g id="line2d_36">
      <g>
       <use xlink:href="#m3726590617" x="254.155882" y="317.58375" style="stroke: #000000; stroke-width: 0.6"/>
      </g>
     </g>
    </g>
    <g id="xtick_37">
     <g id="line2d_37">
      <g>
       <use xlink:href="#m3726590617" x="260.173529" y="317.58375" style="stroke: #000000; stroke-width: 0.6"/>
      </g>
     </g>
    </g>
    <g id="xtick_38">
     <g id="line2d_38">
      <g>
       <use xlink:href="#m3726590617" x="266.191176" y="317.58375" style="stroke: #000000; stroke-width: 0.6"/>
      </g>
     </g>
    </g>
    <g id="xtick_39">
     <g id="line2d_39">
      <g>
       <use xlink:href="#m3726590617" x="272.208824" y="317.58375" style="stroke: #000000; stroke-width: 0.6"/>
      </g>
     </g>
    </g>
    <g id="xtick_40">
     <g id="line2d_40">
      <g>
       <use xlink:href="#m3726590617" x="284.244118" y="317.58375" style="stroke: #000000; stroke-width: 0.6"/>
      </g>
     </g>
    </g>
    <g id="xtick_41">
     <g id="line2d_41">
      <g>
       <use xlink:href="#m3726590617" x="290.261765" y="317.58375" style="stroke: #000000; stroke-width: 0.6"/>
      </g>
     </g>
    </g>
    <g id="xtick_42">
     <g id="line2d_42">
      <g>
       <use xlink:href="#m3726590617" x="296.279412" y="317.58375" style="stroke: #000000; stroke-width: 0.6"/>
      </g>
     </g>
    </g>
    <g id="xtick_43">
     <g id="line2d_43">
      <g>
       <use xlink:href="#m3726590617" x="302.297059" y="317.58375" style="stroke: #000000; stroke-width: 0.6"/>
      </g>
     </g>
    </g>
    <g id="xtick_44">
     <g id="line2d_44">
      <g>
       <use xlink:href="#m3726590617" x="314.332353" y="317.58375" style="stroke: #000000; stroke-width: 0.6"/>
      </g>
     </g>
    </g>
    <g id="xtick_45">
     <g id="line2d_45">
      <g>
       <use xlink:href="#m3726590617" x="320.35" y="317.58375" style="stroke: #000000; stroke-width: 0.6"/>
      </g>
     </g>
    </g>
    <g id="xtick_46">
     <g id="line2d_46">
      <g>
       <use xlink:href="#m3726590617" x="326.367647" y="317.58375" style="stroke: #000000; stroke-width: 0.6"/>
      </g>
     </g>
    </g>
    <g id="xtick_47">
     <g id="line2d_47">
      <g>
       <use xlink:href="#m3726590617" x="332.385294" y="317.58375" style="stroke: #000000; stroke-width: 0.6"/>
      </g>
     </g>
    </g>
    <g id="xtick_48">
     <g id="line2d_48">
      <g>
       <use xlink:href="#m3726590617" x="344.420588" y="317.58375" style="stroke: #000000; stroke-width: 0.6"/>
      </g>
     </g>
    </g>
    <g id="xtick_49">
     <g id="line2d_49">
      <g>
       <use xlink:href="#m3726590617" x="350.438235" y="317.58375" style="stroke: #000000; stroke-width: 0.6"/>
      </g>
     </g>
    </g>
    <g id="xtick_50">
     <g id="line2d_50">
      <g>
       <use xlink:href="#m3726590617" x="356.455882" y="317.58375" style="stroke: #000000; stroke-width: 0.6"/>
      </g>
     </g>
    </g>
    <g id="xtick_51">
     <g id="line2d_51">
      <g>
       <use xlink:href="#m3726590617" x="362.473529" y="317.58375" style="stroke: #000000; stroke-width: 0.6"/>
      </g>
     </g>
    </g>
    <g id="text_12">
     <!-- Dist. from pebble bed top, $z$, [m] -->
     <g transform="translate(113.33 354.02375)scale(0.16 -0.16)">
      <defs>
       <path id="STIXGeneral-Regular-44" d="M 102 4237 
L 1830 4237 
Q 3078 4237 3750 3654 
Q 4384 3110 4384 2138 
Q 4384 966 3514 410 
Q 2880 0 1901 0 
L 102 0 
L 102 122 
Q 474 147 570 252 
Q 666 358 666 736 
L 666 3520 
Q 666 3891 570 3990 
Q 474 4090 102 4115 
L 102 4237 
z
M 1318 3731 
L 1318 538 
Q 1318 365 1379 301 
Q 1440 237 1626 237 
Q 2125 237 2432 307 
Q 2739 378 3021 570 
Q 3686 1018 3686 2099 
Q 3686 3027 3078 3558 
Q 2803 3802 2476 3901 
Q 2150 4000 1658 4000 
Q 1472 4000 1395 3942 
Q 1318 3885 1318 3731 
z
" transform="scale(0.015625)"/>
       <path id="STIXGeneral-Regular-69" d="M 1152 4045 
Q 1152 3904 1056 3811 
Q 960 3718 819 3718 
Q 685 3718 592 3811 
Q 499 3904 499 4045 
Q 499 4179 595 4275 
Q 691 4371 826 4371 
Q 966 4371 1059 4275 
Q 1152 4179 1152 4045 
z
M 1619 0 
L 102 0 
L 102 96 
Q 435 115 521 211 
Q 608 307 608 666 
L 608 2118 
Q 608 2342 563 2432 
Q 518 2522 397 2522 
Q 243 2522 128 2490 
L 128 2592 
L 1120 2944 
L 1146 2918 
L 1146 672 
Q 1146 314 1226 218 
Q 1306 122 1619 96 
L 1619 0 
z
" transform="scale(0.015625)"/>
       <path id="STIXGeneral-Regular-73" d="M 998 1926 
L 1664 1523 
Q 1984 1331 2105 1164 
Q 2227 998 2227 736 
Q 2227 416 1961 176 
Q 1696 -64 1331 -64 
Q 1030 -64 864 -6 
Q 691 51 570 51 
Q 461 51 416 -26 
L 333 -26 
L 333 979 
L 435 979 
Q 538 512 730 294 
Q 922 77 1248 77 
Q 1485 77 1632 211 
Q 1779 346 1779 550 
Q 1779 845 1440 1030 
L 1094 1222 
Q 326 1651 326 2150 
Q 326 2522 566 2730 
Q 806 2938 1210 2938 
Q 1491 2938 1638 2867 
Q 1754 2816 1818 2816 
Q 1862 2816 1920 2880 
L 1990 2880 
L 2022 2010 
L 1926 2010 
Q 1818 2445 1654 2621 
Q 1491 2797 1203 2797 
Q 986 2797 854 2688 
Q 723 2579 723 2362 
Q 723 2253 796 2128 
Q 870 2003 998 1926 
z
" transform="scale(0.015625)"/>
       <path id="STIXGeneral-Regular-74" d="M 1702 493 
L 1786 422 
Q 1478 -64 1011 -64 
Q 448 -64 448 749 
L 448 2675 
L 109 2675 
Q 83 2694 83 2720 
Q 83 2771 192 2842 
Q 435 2982 813 3526 
Q 826 3546 874 3606 
Q 922 3667 941 3706 
Q 986 3706 986 3622 
L 986 2880 
L 1632 2880 
L 1632 2675 
L 986 2675 
L 986 845 
Q 986 538 1062 403 
Q 1139 269 1318 269 
Q 1510 269 1702 493 
z
" transform="scale(0.015625)"/>
       <path id="STIXGeneral-Regular-2e" d="M 1158 275 
Q 1158 134 1052 32 
Q 947 -70 800 -70 
Q 653 -70 550 32 
Q 448 134 448 281 
Q 448 429 553 534 
Q 659 640 806 640 
Q 947 640 1052 531 
Q 1158 422 1158 275 
z
" transform="scale(0.015625)"/>
       <path id="STIXGeneral-Regular-20" transform="scale(0.015625)"/>
       <path id="STIXGeneral-Regular-66" d="M 134 2880 
L 659 2880 
Q 666 3264 710 3478 
Q 755 3693 883 3910 
Q 1152 4371 1786 4371 
Q 2074 4371 2262 4259 
Q 2451 4147 2451 3974 
Q 2451 3866 2374 3789 
Q 2298 3712 2182 3712 
Q 2029 3712 1894 3942 
Q 1741 4192 1555 4192 
Q 1197 4192 1197 3622 
L 1197 2880 
L 1978 2880 
L 1978 2675 
L 1197 2675 
L 1197 666 
Q 1197 307 1299 208 
Q 1402 109 1792 96 
L 1792 0 
L 128 0 
L 128 96 
Q 474 115 566 214 
Q 659 314 659 666 
L 659 2675 
L 134 2675 
L 134 2880 
z
" transform="scale(0.015625)"/>
       <path id="STIXGeneral-Regular-72" d="M 1024 2931 
L 1024 2342 
Q 1267 2688 1430 2816 
Q 1594 2944 1792 2944 
Q 1958 2944 2051 2854 
Q 2144 2765 2144 2605 
Q 2144 2470 2077 2393 
Q 2010 2317 1894 2317 
Q 1773 2317 1638 2445 
Q 1536 2541 1472 2541 
Q 1338 2541 1181 2355 
Q 1024 2170 1024 2016 
L 1024 576 
Q 1024 301 1133 205 
Q 1242 109 1568 96 
L 1568 0 
L 32 0 
L 32 96 
Q 339 154 412 224 
Q 486 294 486 538 
L 486 2138 
Q 486 2349 438 2435 
Q 390 2522 269 2522 
Q 166 2522 45 2496 
L 45 2598 
Q 448 2726 992 2944 
L 1024 2931 
z
" transform="scale(0.015625)"/>
       <path id="STIXGeneral-Regular-6f" d="M 3008 1478 
Q 3008 806 2608 371 
Q 2208 -64 1568 -64 
Q 979 -64 582 368 
Q 186 800 186 1459 
Q 186 2125 582 2534 
Q 979 2944 1626 2944 
Q 2221 2944 2614 2537 
Q 3008 2131 3008 1478 
z
M 2432 1306 
Q 2432 2035 2112 2445 
Q 1856 2765 1504 2765 
Q 1171 2765 966 2493 
Q 762 2221 762 1747 
Q 762 928 1101 435 
Q 1318 115 1677 115 
Q 2029 115 2230 432 
Q 2432 749 2432 1306 
z
" transform="scale(0.015625)"/>
       <path id="STIXGeneral-Regular-6d" d="M 4960 0 
L 3565 0 
L 3565 96 
Q 3834 122 3907 208 
Q 3981 294 3981 576 
L 3981 1894 
Q 3981 2278 3869 2444 
Q 3757 2611 3488 2611 
Q 3264 2611 3107 2521 
Q 2950 2432 2803 2221 
L 2803 608 
Q 2803 301 2896 201 
Q 2989 102 3264 96 
L 3264 0 
L 1830 0 
L 1830 96 
Q 2112 115 2189 188 
Q 2266 262 2266 550 
L 2266 1901 
Q 2266 2611 1850 2611 
Q 1670 2611 1468 2531 
Q 1267 2451 1171 2336 
Q 1088 2240 1088 2227 
L 1088 448 
Q 1088 243 1177 176 
Q 1267 109 1523 96 
L 1523 0 
L 102 0 
L 102 96 
Q 371 102 460 195 
Q 550 288 550 563 
L 550 2150 
Q 550 2387 499 2480 
Q 448 2573 326 2573 
Q 230 2573 122 2547 
L 122 2656 
Q 557 2778 1011 2944 
L 1062 2925 
L 1062 2451 
L 1075 2451 
Q 1363 2752 1584 2848 
Q 1805 2944 2054 2944 
Q 2560 2944 2733 2406 
Q 3232 2944 3776 2944 
Q 4518 2944 4518 1792 
L 4518 493 
Q 4518 282 4582 202 
Q 4646 122 4794 109 
L 4960 96 
L 4960 0 
z
" transform="scale(0.015625)"/>
       <path id="STIXGeneral-Regular-70" d="M 1018 2931 
L 1018 2438 
Q 1421 2944 1939 2944 
Q 2406 2944 2707 2560 
Q 3008 2176 3008 1581 
Q 3008 883 2621 409 
Q 2234 -64 1664 -64 
Q 1466 -64 1328 -6 
Q 1190 51 1018 211 
L 1018 -794 
Q 1018 -1094 1120 -1180 
Q 1222 -1267 1581 -1274 
L 1581 -1389 
L 32 -1389 
L 32 -1280 
Q 314 -1254 397 -1171 
Q 480 -1088 480 -838 
L 480 2157 
Q 480 2381 429 2451 
Q 378 2522 218 2522 
Q 115 2522 58 2515 
L 58 2618 
Q 506 2752 979 2944 
L 1018 2931 
z
M 1018 2138 
L 1018 563 
Q 1018 422 1238 281 
Q 1459 141 1683 141 
Q 2029 141 2243 467 
Q 2458 794 2458 1325 
Q 2458 1888 2243 2224 
Q 2029 2560 1670 2560 
Q 1446 2560 1232 2419 
Q 1018 2278 1018 2138 
z
" transform="scale(0.015625)"/>
       <path id="STIXGeneral-Regular-65" d="M 2611 1050 
L 2714 1005 
Q 2330 -64 1376 -64 
Q 813 -64 486 329 
Q 160 723 160 1389 
Q 160 2074 525 2509 
Q 890 2944 1485 2944 
Q 2061 2944 2374 2502 
Q 2560 2246 2592 1773 
L 621 1773 
Q 646 1370 700 1158 
Q 755 947 915 730 
Q 1184 378 1626 378 
Q 1939 378 2153 531 
Q 2368 685 2611 1050 
z
M 634 1978 
L 1939 1978 
Q 1882 2381 1750 2547 
Q 1619 2714 1312 2714 
Q 1043 2714 864 2525 
Q 685 2336 634 1978 
z
" transform="scale(0.015625)"/>
       <path id="STIXGeneral-Regular-62" d="M 979 4358 
L 979 2406 
Q 1082 2650 1315 2797 
Q 1549 2944 1843 2944 
Q 2349 2944 2672 2541 
Q 2995 2138 2995 1536 
Q 2995 832 2566 384 
Q 2138 -64 1498 -64 
Q 1107 -64 774 67 
Q 442 198 442 358 
L 442 3622 
Q 442 3859 384 3926 
Q 326 3994 128 3994 
Q 83 3994 19 3981 
L 19 4090 
L 211 4147 
Q 864 4346 947 4371 
L 979 4358 
z
M 979 2035 
L 979 474 
Q 979 326 1161 233 
Q 1344 141 1600 141 
Q 1978 141 2195 416 
Q 2432 710 2432 1261 
Q 2432 1888 2182 2240 
Q 1971 2541 1613 2541 
Q 1357 2541 1168 2390 
Q 979 2240 979 2035 
z
" transform="scale(0.015625)"/>
       <path id="STIXGeneral-Regular-6c" d="M 1645 0 
L 134 0 
L 134 96 
Q 435 122 531 221 
Q 627 320 627 589 
L 627 3590 
Q 627 3821 569 3910 
Q 512 4000 358 4000 
Q 224 4000 122 3987 
L 122 4090 
Q 730 4237 1133 4371 
L 1165 4346 
L 1165 557 
Q 1165 288 1254 201 
Q 1344 115 1645 96 
L 1645 0 
z
" transform="scale(0.015625)"/>
       <path id="STIXGeneral-Regular-64" d="M 3142 269 
L 2202 -64 
L 2176 -45 
L 2176 365 
Q 1869 -64 1357 -64 
Q 826 -64 499 317 
Q 173 698 173 1312 
Q 173 1990 563 2467 
Q 954 2944 1504 2944 
Q 1850 2944 2176 2669 
L 2176 3667 
Q 2176 3866 2118 3930 
Q 2061 3994 1882 3994 
Q 1792 3994 1741 3987 
L 1741 4090 
Q 2323 4243 2682 4371 
L 2714 4358 
L 2714 730 
Q 2714 506 2768 435 
Q 2822 365 2995 365 
Q 3034 365 3142 371 
L 3142 269 
z
M 2176 653 
L 2176 2125 
Q 2176 2381 1981 2573 
Q 1786 2765 1523 2765 
Q 1158 2765 940 2438 
Q 723 2112 723 1568 
Q 723 979 963 624 
Q 1203 269 1606 269 
Q 1907 269 2080 474 
Q 2176 582 2176 653 
z
" transform="scale(0.015625)"/>
       <path id="STIXGeneral-Regular-2c" d="M 531 -902 
L 467 -781 
Q 998 -422 998 -96 
Q 998 -13 909 -13 
Q 883 -13 822 -25 
Q 762 -38 723 -38 
Q 352 -38 352 288 
Q 352 454 457 553 
Q 563 653 736 653 
Q 954 653 1101 496 
Q 1248 339 1248 96 
Q 1248 -198 1053 -473 
Q 858 -749 531 -902 
z
" transform="scale(0.015625)"/>
       <path id="STIXGeneral-Italic-7a" d="M 2432 2669 
L 582 467 
Q 877 403 1021 307 
Q 1165 211 1350 -64 
Q 1568 -384 1798 -384 
Q 1971 -384 1971 -288 
Q 1971 -256 1939 -192 
Q 1888 -90 1888 -13 
Q 1894 70 1958 137 
Q 2022 205 2099 205 
Q 2202 205 2262 141 
Q 2323 77 2323 -32 
Q 2323 -230 2156 -374 
Q 1990 -518 1728 -518 
Q 1459 -518 1005 -237 
Q 570 32 333 32 
Q 186 32 45 -83 
L -13 -26 
L 1971 2355 
L 1101 2355 
Q 845 2355 729 2281 
Q 614 2208 518 1971 
L 416 1997 
L 621 2739 
L 2432 2739 
L 2432 2669 
z
" transform="scale(0.015625)"/>
       <path id="STIXGeneral-Regular-5b" d="M 1914 -998 
L 563 -998 
L 563 4237 
L 1914 4237 
L 1914 4077 
L 1382 4077 
Q 1216 4077 1133 4006 
Q 1050 3936 1050 3770 
L 1050 -493 
Q 1050 -838 1382 -838 
L 1914 -838 
L 1914 -998 
z
" transform="scale(0.015625)"/>
       <path id="STIXGeneral-Regular-5d" d="M 1568 -998 
L 218 -998 
L 218 -838 
L 781 -838 
Q 947 -838 1014 -768 
Q 1082 -698 1082 -544 
L 1082 3731 
Q 1082 4077 755 4077 
L 218 4077 
L 218 4237 
L 1568 4237 
L 1568 -998 
z
" transform="scale(0.015625)"/>
      </defs>
      <use xlink:href="#STIXGeneral-Regular-44" transform="translate(0 0.703125)"/>
      <use xlink:href="#STIXGeneral-Regular-69" transform="translate(72.199982 0.703125)"/>
      <use xlink:href="#STIXGeneral-Regular-73" transform="translate(99.999969 0.703125)"/>
      <use xlink:href="#STIXGeneral-Regular-74" transform="translate(138.899963 0.703125)"/>
      <use xlink:href="#STIXGeneral-Regular-2e" transform="translate(166.699951 0.703125)"/>
      <use xlink:href="#STIXGeneral-Regular-20" transform="translate(191.699936 0.703125)"/>
      <use xlink:href="#STIXGeneral-Regular-66" transform="translate(216.699921 0.703125)"/>
      <use xlink:href="#STIXGeneral-Regular-72" transform="translate(249.999908 0.703125)"/>
      <use xlink:href="#STIXGeneral-Regular-6f" transform="translate(283.299896 0.703125)"/>
      <use xlink:href="#STIXGeneral-Regular-6d" transform="translate(333.299881 0.703125)"/>
      <use xlink:href="#STIXGeneral-Regular-20" transform="translate(411.099869 0.703125)"/>
      <use xlink:href="#STIXGeneral-Regular-70" transform="translate(436.099854 0.703125)"/>
      <use xlink:href="#STIXGeneral-Regular-65" transform="translate(486.099838 0.703125)"/>
      <use xlink:href="#STIXGeneral-Regular-62" transform="translate(530.499832 0.703125)"/>
      <use xlink:href="#STIXGeneral-Regular-62" transform="translate(580.499817 0.703125)"/>
      <use xlink:href="#STIXGeneral-Regular-6c" transform="translate(630.499802 0.703125)"/>
      <use xlink:href="#STIXGeneral-Regular-65" transform="translate(658.299789 0.703125)"/>
      <use xlink:href="#STIXGeneral-Regular-20" transform="translate(702.699783 0.703125)"/>
      <use xlink:href="#STIXGeneral-Regular-62" transform="translate(727.699768 0.703125)"/>
      <use xlink:href="#STIXGeneral-Regular-65" transform="translate(777.699753 0.703125)"/>
      <use xlink:href="#STIXGeneral-Regular-64" transform="translate(822.099747 0.703125)"/>
      <use xlink:href="#STIXGeneral-Regular-20" transform="translate(872.099731 0.703125)"/>
      <use xlink:href="#STIXGeneral-Regular-74" transform="translate(897.099716 0.703125)"/>
      <use xlink:href="#STIXGeneral-Regular-6f" transform="translate(924.899704 0.703125)"/>
      <use xlink:href="#STIXGeneral-Regular-70" transform="translate(974.899689 0.703125)"/>
      <use xlink:href="#STIXGeneral-Regular-2c" transform="translate(1024.899673 0.703125)"/>
      <use xlink:href="#STIXGeneral-Regular-20" transform="translate(1049.899658 0.703125)"/>
      <use xlink:href="#STIXGeneral-Italic-7a" transform="translate(1074.899643 0.703125)"/>
      <use xlink:href="#STIXGeneral-Regular-2c" transform="translate(1113.799637 0.703125)"/>
      <use xlink:href="#STIXGeneral-Regular-20" transform="translate(1138.799622 0.703125)"/>
      <use xlink:href="#STIXGeneral-Regular-5b" transform="translate(1163.799606 0.703125)"/>
      <use xlink:href="#STIXGeneral-Regular-6d" transform="translate(1197.099594 0.703125)"/>
      <use xlink:href="#STIXGeneral-Regular-5d" transform="translate(1274.899582 0.703125)"/>
     </g>
    </g>
   </g>
   <g id="matplotlib.axis_2">
    <g id="ytick_1">
     <g id="line2d_52">
      <defs>
       <path id="m0b3277f52b" d="M 0 0 
L -3.5 0 
" style="stroke: #000000; stroke-width: 0.8"/>
      </defs>
      <g>
       <use xlink:href="#m0b3277f52b" x="64.6" y="317.58375" style="stroke: #000000; stroke-width: 0.8"/>
      </g>
     </g>
     <g id="text_13">
      <!-- 500 -->
      <g transform="translate(33.6 323.0475)scale(0.16 -0.16)">
       <use xlink:href="#STIXGeneral-Regular-35"/>
       <use xlink:href="#STIXGeneral-Regular-30" x="49.999985"/>
       <use xlink:href="#STIXGeneral-Regular-30" x="99.999969"/>
      </g>
     </g>
    </g>
    <g id="ytick_2">
     <g id="line2d_53">
      <g>
       <use xlink:href="#m0b3277f52b" x="64.6" y="274.02375" style="stroke: #000000; stroke-width: 0.8"/>
      </g>
     </g>
     <g id="text_14">
      <!-- 600 -->
      <g transform="translate(33.6 279.4875)scale(0.16 -0.16)">
       <use xlink:href="#STIXGeneral-Regular-36"/>
       <use xlink:href="#STIXGeneral-Regular-30" x="49.999985"/>
       <use xlink:href="#STIXGeneral-Regular-30" x="99.999969"/>
      </g>
     </g>
    </g>
    <g id="ytick_3">
     <g id="line2d_54">
      <g>
       <use xlink:href="#m0b3277f52b" x="64.6" y="230.46375" style="stroke: #000000; stroke-width: 0.8"/>
      </g>
     </g>
     <g id="text_15">
      <!-- 700 -->
      <g transform="translate(33.6 235.9275)scale(0.16 -0.16)">
       <use xlink:href="#STIXGeneral-Regular-37"/>
       <use xlink:href="#STIXGeneral-Regular-30" x="49.999985"/>
       <use xlink:href="#STIXGeneral-Regular-30" x="99.999969"/>
      </g>
     </g>
    </g>
    <g id="ytick_4">
     <g id="line2d_55">
      <g>
       <use xlink:href="#m0b3277f52b" x="64.6" y="186.90375" style="stroke: #000000; stroke-width: 0.8"/>
      </g>
     </g>
     <g id="text_16">
      <!-- 800 -->
      <g transform="translate(33.6 192.3675)scale(0.16 -0.16)">
       <use xlink:href="#STIXGeneral-Regular-38"/>
       <use xlink:href="#STIXGeneral-Regular-30" x="49.999985"/>
       <use xlink:href="#STIXGeneral-Regular-30" x="99.999969"/>
      </g>
     </g>
    </g>
    <g id="ytick_5">
     <g id="line2d_56">
      <g>
       <use xlink:href="#m0b3277f52b" x="64.6" y="143.34375" style="stroke: #000000; stroke-width: 0.8"/>
      </g>
     </g>
     <g id="text_17">
      <!-- 900 -->
      <g transform="translate(33.6 148.8075)scale(0.16 -0.16)">
       <use xlink:href="#STIXGeneral-Regular-39"/>
       <use xlink:href="#STIXGeneral-Regular-30" x="49.999985"/>
       <use xlink:href="#STIXGeneral-Regular-30" x="99.999969"/>
      </g>
     </g>
    </g>
    <g id="ytick_6">
     <g id="line2d_57">
      <g>
       <use xlink:href="#m0b3277f52b" x="64.6" y="99.78375" style="stroke: #000000; stroke-width: 0.8"/>
      </g>
     </g>
     <g id="text_18">
      <!-- 1000 -->
      <g transform="translate(25.6 105.2475)scale(0.16 -0.16)">
       <use xlink:href="#STIXGeneral-Regular-31"/>
       <use xlink:href="#STIXGeneral-Regular-30" x="49.999985"/>
       <use xlink:href="#STIXGeneral-Regular-30" x="99.999969"/>
       <use xlink:href="#STIXGeneral-Regular-30" x="149.999954"/>
      </g>
     </g>
    </g>
    <g id="ytick_7">
     <g id="line2d_58">
      <g>
       <use xlink:href="#m0b3277f52b" x="64.6" y="56.22375" style="stroke: #000000; stroke-width: 0.8"/>
      </g>
     </g>
     <g id="text_19">
      <!-- 1100 -->
      <g transform="translate(25.6 61.6875)scale(0.16 -0.16)">
       <use xlink:href="#STIXGeneral-Regular-31"/>
       <use xlink:href="#STIXGeneral-Regular-31" x="49.999985"/>
       <use xlink:href="#STIXGeneral-Regular-30" x="99.999969"/>
       <use xlink:href="#STIXGeneral-Regular-30" x="149.999954"/>
      </g>
     </g>
    </g>
    <g id="ytick_8">
     <g id="line2d_59">
      <g>
       <use xlink:href="#m0b3277f52b" x="64.6" y="12.66375" style="stroke: #000000; stroke-width: 0.8"/>
      </g>
     </g>
     <g id="text_20">
      <!-- 1200 -->
      <g transform="translate(25.6 18.1275)scale(0.16 -0.16)">
       <use xlink:href="#STIXGeneral-Regular-31"/>
       <use xlink:href="#STIXGeneral-Regular-32" x="49.999985"/>
       <use xlink:href="#STIXGeneral-Regular-30" x="99.999969"/>
       <use xlink:href="#STIXGeneral-Regular-30" x="149.999954"/>
      </g>
     </g>
    </g>
    <g id="ytick_9">
     <g id="line2d_60">
      <defs>
       <path id="m49378a8146" d="M 0 0 
L -2 0 
" style="stroke: #000000; stroke-width: 0.6"/>
      </defs>
      <g>
       <use xlink:href="#m49378a8146" x="64.6" y="308.87175" style="stroke: #000000; stroke-width: 0.6"/>
      </g>
     </g>
    </g>
    <g id="ytick_10">
     <g id="line2d_61">
      <g>
       <use xlink:href="#m49378a8146" x="64.6" y="300.15975" style="stroke: #000000; stroke-width: 0.6"/>
      </g>
     </g>
    </g>
    <g id="ytick_11">
     <g id="line2d_62">
      <g>
       <use xlink:href="#m49378a8146" x="64.6" y="291.44775" style="stroke: #000000; stroke-width: 0.6"/>
      </g>
     </g>
    </g>
    <g id="ytick_12">
     <g id="line2d_63">
      <g>
       <use xlink:href="#m49378a8146" x="64.6" y="282.73575" style="stroke: #000000; stroke-width: 0.6"/>
      </g>
     </g>
    </g>
    <g id="ytick_13">
     <g id="line2d_64">
      <g>
       <use xlink:href="#m49378a8146" x="64.6" y="265.31175" style="stroke: #000000; stroke-width: 0.6"/>
      </g>
     </g>
    </g>
    <g id="ytick_14">
     <g id="line2d_65">
      <g>
       <use xlink:href="#m49378a8146" x="64.6" y="256.59975" style="stroke: #000000; stroke-width: 0.6"/>
      </g>
     </g>
    </g>
    <g id="ytick_15">
     <g id="line2d_66">
      <g>
       <use xlink:href="#m49378a8146" x="64.6" y="247.88775" style="stroke: #000000; stroke-width: 0.6"/>
      </g>
     </g>
    </g>
    <g id="ytick_16">
     <g id="line2d_67">
      <g>
       <use xlink:href="#m49378a8146" x="64.6" y="239.17575" style="stroke: #000000; stroke-width: 0.6"/>
      </g>
     </g>
    </g>
    <g id="ytick_17">
     <g id="line2d_68">
      <g>
       <use xlink:href="#m49378a8146" x="64.6" y="221.75175" style="stroke: #000000; stroke-width: 0.6"/>
      </g>
     </g>
    </g>
    <g id="ytick_18">
     <g id="line2d_69">
      <g>
       <use xlink:href="#m49378a8146" x="64.6" y="213.03975" style="stroke: #000000; stroke-width: 0.6"/>
      </g>
     </g>
    </g>
    <g id="ytick_19">
     <g id="line2d_70">
      <g>
       <use xlink:href="#m49378a8146" x="64.6" y="204.32775" style="stroke: #000000; stroke-width: 0.6"/>
      </g>
     </g>
    </g>
    <g id="ytick_20">
     <g id="line2d_71">
      <g>
       <use xlink:href="#m49378a8146" x="64.6" y="195.61575" style="stroke: #000000; stroke-width: 0.6"/>
      </g>
     </g>
    </g>
    <g id="ytick_21">
     <g id="line2d_72">
      <g>
       <use xlink:href="#m49378a8146" x="64.6" y="178.19175" style="stroke: #000000; stroke-width: 0.6"/>
      </g>
     </g>
    </g>
    <g id="ytick_22">
     <g id="line2d_73">
      <g>
       <use xlink:href="#m49378a8146" x="64.6" y="169.47975" style="stroke: #000000; stroke-width: 0.6"/>
      </g>
     </g>
    </g>
    <g id="ytick_23">
     <g id="line2d_74">
      <g>
       <use xlink:href="#m49378a8146" x="64.6" y="160.76775" style="stroke: #000000; stroke-width: 0.6"/>
      </g>
     </g>
    </g>
    <g id="ytick_24">
     <g id="line2d_75">
      <g>
       <use xlink:href="#m49378a8146" x="64.6" y="152.05575" style="stroke: #000000; stroke-width: 0.6"/>
      </g>
     </g>
    </g>
    <g id="ytick_25">
     <g id="line2d_76">
      <g>
       <use xlink:href="#m49378a8146" x="64.6" y="134.63175" style="stroke: #000000; stroke-width: 0.6"/>
      </g>
     </g>
    </g>
    <g id="ytick_26">
     <g id="line2d_77">
      <g>
       <use xlink:href="#m49378a8146" x="64.6" y="125.91975" style="stroke: #000000; stroke-width: 0.6"/>
      </g>
     </g>
    </g>
    <g id="ytick_27">
     <g id="line2d_78">
      <g>
       <use xlink:href="#m49378a8146" x="64.6" y="117.20775" style="stroke: #000000; stroke-width: 0.6"/>
      </g>
     </g>
    </g>
    <g id="ytick_28">
     <g id="line2d_79">
      <g>
       <use xlink:href="#m49378a8146" x="64.6" y="108.49575" style="stroke: #000000; stroke-width: 0.6"/>
      </g>
     </g>
    </g>
    <g id="ytick_29">
     <g id="line2d_80">
      <g>
       <use xlink:href="#m49378a8146" x="64.6" y="91.07175" style="stroke: #000000; stroke-width: 0.6"/>
      </g>
     </g>
    </g>
    <g id="ytick_30">
     <g id="line2d_81">
      <g>
       <use xlink:href="#m49378a8146" x="64.6" y="82.35975" style="stroke: #000000; stroke-width: 0.6"/>
      </g>
     </g>
    </g>
    <g id="ytick_31">
     <g id="line2d_82">
      <g>
       <use xlink:href="#m49378a8146" x="64.6" y="73.64775" style="stroke: #000000; stroke-width: 0.6"/>
      </g>
     </g>
    </g>
    <g id="ytick_32">
     <g id="line2d_83">
      <g>
       <use xlink:href="#m49378a8146" x="64.6" y="64.93575" style="stroke: #000000; stroke-width: 0.6"/>
      </g>
     </g>
    </g>
    <g id="ytick_33">
     <g id="line2d_84">
      <g>
       <use xlink:href="#m49378a8146" x="64.6" y="47.51175" style="stroke: #000000; stroke-width: 0.6"/>
      </g>
     </g>
    </g>
    <g id="ytick_34">
     <g id="line2d_85">
      <g>
       <use xlink:href="#m49378a8146" x="64.6" y="38.79975" style="stroke: #000000; stroke-width: 0.6"/>
      </g>
     </g>
    </g>
    <g id="ytick_35">
     <g id="line2d_86">
      <g>
       <use xlink:href="#m49378a8146" x="64.6" y="30.08775" style="stroke: #000000; stroke-width: 0.6"/>
      </g>
     </g>
    </g>
    <g id="ytick_36">
     <g id="line2d_87">
      <g>
       <use xlink:href="#m49378a8146" x="64.6" y="21.37575" style="stroke: #000000; stroke-width: 0.6"/>
      </g>
     </g>
    </g>
    <g id="text_21">
     <!-- Temperature, $T$, [K] -->
     <g transform="translate(18.08 229.60375)rotate(-90)scale(0.16 -0.16)">
      <defs>
       <path id="STIXGeneral-Regular-54" d="M 3795 3149 
L 3642 3149 
Q 3539 3674 3353 3821 
Q 3168 3968 2656 3968 
L 2278 3968 
L 2278 710 
Q 2278 346 2387 243 
Q 2496 141 2893 122 
L 2893 0 
L 1024 0 
L 1024 122 
Q 1427 147 1526 256 
Q 1626 365 1626 787 
L 1626 3968 
L 1242 3968 
Q 723 3968 540 3817 
Q 358 3667 262 3149 
L 109 3149 
L 154 4237 
L 3750 4237 
L 3795 3149 
z
" transform="scale(0.015625)"/>
       <path id="STIXGeneral-Regular-61" d="M 2829 422 
L 2829 243 
Q 2586 -64 2253 -64 
Q 1888 -64 1843 403 
L 1837 403 
Q 1427 -64 909 -64 
Q 608 -64 422 112 
Q 237 288 237 602 
Q 237 1050 685 1350 
Q 992 1555 1837 1869 
L 1837 2214 
Q 1837 2502 1699 2646 
Q 1562 2790 1338 2790 
Q 1146 2790 1018 2697 
Q 890 2605 890 2477 
Q 890 2419 909 2348 
Q 928 2278 928 2208 
Q 928 2112 841 2029 
Q 755 1946 634 1946 
Q 525 1946 441 2029 
Q 358 2112 358 2240 
Q 358 2547 685 2752 
Q 986 2944 1421 2944 
Q 1939 2944 2176 2656 
Q 2291 2522 2323 2384 
Q 2355 2246 2355 1946 
L 2355 723 
Q 2355 301 2554 301 
Q 2682 301 2829 422 
z
M 1837 813 
L 1837 1715 
Q 1248 1510 1018 1293 
Q 800 1094 800 800 
Q 800 557 921 432 
Q 1043 307 1242 307 
Q 1453 307 1613 410 
Q 1747 506 1792 589 
Q 1837 672 1837 813 
z
" transform="scale(0.015625)"/>
       <path id="STIXGeneral-Regular-75" d="M 3072 320 
L 3072 230 
Q 2573 96 2195 -58 
L 2163 -38 
L 2163 486 
L 2150 486 
Q 1747 -64 1235 -64 
Q 870 -64 662 160 
Q 454 384 454 755 
L 454 2362 
Q 454 2598 371 2688 
Q 288 2778 58 2790 
L 58 2880 
L 992 2880 
L 992 813 
Q 992 595 1123 451 
Q 1254 307 1446 307 
Q 1760 307 1984 506 
Q 2067 582 2099 649 
Q 2131 717 2131 877 
L 2131 2355 
Q 2131 2605 2041 2678 
Q 1952 2752 1658 2771 
L 1658 2880 
L 2669 2880 
L 2669 685 
Q 2669 461 2742 390 
Q 2816 320 3034 320 
L 3072 320 
z
" transform="scale(0.015625)"/>
       <path id="STIXGeneral-Italic-54" d="M 4051 4179 
L 3770 3130 
L 3661 3142 
Q 3680 3302 3680 3437 
Q 3680 3955 3034 3955 
L 2662 3955 
L 1786 819 
Q 1696 506 1696 397 
Q 1696 250 1766 195 
Q 1837 141 2035 122 
L 2259 102 
L 2259 0 
L 416 0 
L 416 102 
Q 749 134 889 230 
Q 1030 326 1101 582 
L 2016 3955 
Q 1254 3955 988 3817 
Q 723 3680 493 3162 
L 378 3187 
L 646 4179 
L 4051 4179 
z
" transform="scale(0.015625)"/>
       <path id="STIXGeneral-Regular-4b" d="M 4627 0 
L 2688 0 
L 2688 122 
L 2861 128 
Q 3130 134 3130 282 
Q 3130 397 2922 643 
Q 2714 890 2253 1370 
L 1613 2029 
L 1446 1894 
L 1446 710 
Q 1446 352 1548 253 
Q 1651 154 2016 122 
L 2016 0 
L 211 0 
L 211 122 
Q 589 141 691 262 
Q 794 384 794 800 
L 794 3514 
Q 794 3872 691 3981 
Q 589 4090 218 4115 
L 218 4237 
L 2022 4237 
L 2022 4115 
Q 1632 4090 1539 3987 
Q 1446 3885 1446 3507 
L 1446 2227 
L 2586 3277 
Q 2861 3533 2973 3667 
Q 3085 3802 3085 3910 
Q 3085 4013 3030 4057 
Q 2976 4102 2822 4109 
L 2662 4115 
L 2662 4237 
L 4320 4237 
L 4320 4115 
Q 3994 4090 3824 4003 
Q 3654 3917 3322 3597 
L 2131 2458 
L 3629 819 
Q 4026 384 4214 253 
Q 4403 122 4627 122 
L 4627 0 
z
" transform="scale(0.015625)"/>
      </defs>
      <use xlink:href="#STIXGeneral-Regular-54" transform="translate(0 0.796875)"/>
      <use xlink:href="#STIXGeneral-Regular-65" transform="translate(61.099991 0.796875)"/>
      <use xlink:href="#STIXGeneral-Regular-6d" transform="translate(105.499985 0.796875)"/>
      <use xlink:href="#STIXGeneral-Regular-70" transform="translate(183.299973 0.796875)"/>
      <use xlink:href="#STIXGeneral-Regular-65" transform="translate(233.299957 0.796875)"/>
      <use xlink:href="#STIXGeneral-Regular-72" transform="translate(277.699951 0.796875)"/>
      <use xlink:href="#STIXGeneral-Regular-61" transform="translate(310.999939 0.796875)"/>
      <use xlink:href="#STIXGeneral-Regular-74" transform="translate(355.399933 0.796875)"/>
      <use xlink:href="#STIXGeneral-Regular-75" transform="translate(383.199921 0.796875)"/>
      <use xlink:href="#STIXGeneral-Regular-72" transform="translate(433.199905 0.796875)"/>
      <use xlink:href="#STIXGeneral-Regular-65" transform="translate(466.499893 0.796875)"/>
      <use xlink:href="#STIXGeneral-Regular-2c" transform="translate(510.899887 0.796875)"/>
      <use xlink:href="#STIXGeneral-Regular-20" transform="translate(535.899872 0.796875)"/>
      <use xlink:href="#STIXGeneral-Italic-54" transform="translate(560.899857 0.796875)"/>
      <use xlink:href="#STIXGeneral-Regular-2c" transform="translate(616.499847 0.796875)"/>
      <use xlink:href="#STIXGeneral-Regular-20" transform="translate(641.499832 0.796875)"/>
      <use xlink:href="#STIXGeneral-Regular-5b" transform="translate(666.499817 0.796875)"/>
      <use xlink:href="#STIXGeneral-Regular-4b" transform="translate(699.799805 0.796875)"/>
      <use xlink:href="#STIXGeneral-Regular-5d" transform="translate(771.999786 0.796875)"/>
     </g>
    </g>
   </g>
   <g id="line2d_88">
    <path d="M 352.544412 37.46391 
L 351.867426 37.82691 
L 351.190441 38.18507 
L 350.513456 38.54323 
L 349.836471 38.89655 
L 349.159485 39.25471 
L 348.4825 39.68789 
L 347.805515 40.10171 
L 347.128529 40.44051 
L 346.451544 40.78415 
L 345.774559 41.13263 
L 345.097574 41.47627 
L 344.420588 41.81507 
L 343.743603 42.15871 
L 343.066618 42.49267 
L 342.389632 42.83631 
L 341.712647 43.18479 
L 341.035662 43.52359 
L 340.358676 43.87207 
L 339.681691 44.21087 
L 339.004706 44.55451 
L 338.327721 44.88363 
L 337.650735 45.22727 
L 336.97375 45.57575 
L 336.296765 45.97263 
L 331.819635 47.31331 
L 327.339497 48.62011 
L 322.862368 50.15439 
L 318.385238 52.08555 
L 313.9051 54.13287 
L 309.427971 56.42219 
L 304.950841 58.94383 
L 300.470703 61.70747 
L 295.993574 64.55339 
L 291.516444 67.68487 
L 287.036306 70.96155 
L 282.559176 74.44635 
L 278.082047 77.97471 
L 273.601909 81.85639 
L 269.124779 85.73807 
L 264.64765 89.85207 
L 260.167512 94.025118 
L 255.690382 98.460978 
L 251.213253 102.84263 
L 246.733115 107.493386 
L 242.255985 112.153822 
L 237.778856 117.01415 
L 233.298718 121.775742 
L 228.821588 126.870326 
L 224.344459 131.837134 
L 219.864321 137.001898 
L 215.387191 142.100354 
L 210.910062 147.440326 
L 206.429924 152.599282 
L 201.952794 157.971198 
L 197.475665 163.244862 
L 192.995526 168.677762 
L 188.518397 173.90593 
L 184.041268 179.412882 
L 179.561129 184.700098 
L 175.084 190.132998 
L 170.606871 195.387302 
L 166.126732 200.822138 
L 161.649603 205.989806 
L 157.172474 211.280894 
L 152.692335 216.406938 
L 148.215206 221.614778 
L 143.738076 226.551578 
L 139.257938 231.650034 
L 134.780809 236.485194 
L 130.303679 241.348426 
L 125.823541 245.982726 
L 121.346412 250.683818 
L 116.869282 255.094026 
L 112.389144 259.486326 
L 107.896971 263.708742 
L 103.443912 267.849846 
L 98.960765 271.696678 
L 94.477618 275.520762 
L 89.994471 279.104782 
L 85.511324 282.571674 
L 81.058265 285.827058 
L 76.575118 288.994354 
L 72.091971 291.917714 
L 67.608824 294.692486 
" clip-path="url(#p8323636cd7)" style="fill: none; stroke: #ff0000; stroke-linecap: square"/>
   </g>
   <g id="line2d_89">
    <path d="M 348.4825 59.33631 
L 347.805515 59.68479 
L 347.128529 60.01743 
L 346.451544 60.35403 
L 345.774559 60.69063 
L 345.097574 61.03119 
L 344.420588 61.45491 
L 343.743603 61.85487 
L 343.066618 62.17167 
L 342.389632 62.50035 
L 341.712647 62.82111 
L 341.035662 63.13791 
L 340.358676 63.46263 
L 339.681691 63.78339 
L 339.004706 64.10811 
L 338.327721 64.42887 
L 337.650735 64.76151 
L 336.97375 65.07039 
L 336.296765 65.44263 
L 331.819635 66.74943 
L 327.339497 68.02455 
L 322.862368 69.50163 
L 318.385238 71.34699 
L 313.9051 73.30323 
L 309.427971 75.46143 
L 304.950841 77.84139 
L 300.470703 80.43519 
L 295.993574 83.11611 
L 291.516444 86.04255 
L 287.036306 89.10363 
L 282.559176 92.36271 
L 278.082047 95.661786 
L 273.601909 99.287166 
L 269.124779 102.91017 
L 264.64765 106.728006 
L 260.167512 110.613558 
L 255.690382 114.727998 
L 251.213253 118.795314 
L 246.733115 123.091914 
L 242.255985 127.40277 
L 237.778856 131.896974 
L 233.298718 136.305246 
L 228.821588 141.01527 
L 224.344459 145.610058 
L 219.864321 150.37869 
L 215.387191 155.085942 
L 210.910062 160.003074 
L 206.429924 164.759826 
L 201.952794 169.703094 
L 197.475665 174.565578 
L 192.995526 179.576958 
L 188.518397 184.404198 
L 184.041268 189.477354 
L 179.561129 194.349738 
L 175.084 199.340526 
L 170.606871 204.174894 
L 166.126732 209.163702 
L 161.649603 213.916098 
L 157.172474 218.774622 
L 152.692335 223.49415 
L 148.215206 228.27783 
L 143.738076 232.822326 
L 139.257938 237.501858 
L 134.780809 241.944186 
L 130.303679 246.403542 
L 125.823541 250.661334 
L 121.346412 254.971794 
L 116.869282 259.022874 
L 112.389144 263.051382 
L 107.896971 266.923866 
L 103.443912 270.708042 
L 98.960765 274.23561 
L 94.477618 277.741794 
L 89.994471 281.037702 
L 85.511324 284.221146 
L 81.058265 287.214114 
L 76.575118 290.120358 
L 72.091971 292.805238 
L 67.608824 295.350726 
" clip-path="url(#p8323636cd7)" style="fill: none; stroke: #0000ff; stroke-linecap: square"/>
   </g>
   <g id="line2d_90">
    <path d="M 344.420588 82.50627 
L 343.743603 82.81119 
L 343.066618 83.11611 
L 342.389632 83.42103 
L 341.712647 83.72595 
L 341.035662 84.03087 
L 340.358676 84.36351 
L 339.681691 84.68823 
L 339.004706 84.99315 
L 338.327721 85.29411 
L 337.650735 85.59507 
L 336.97375 85.89999 
L 336.296765 86.24055 
L 331.819635 87.48003 
L 327.339497 88.68783 
L 322.862368 90.07779 
L 318.385238 91.80435 
L 313.9051 93.626346 
L 309.427971 95.647926 
L 304.950841 97.846914 
L 300.470703 100.254594 
L 295.993574 102.728406 
L 291.516444 105.433878 
L 287.036306 108.25815 
L 282.559176 111.25587 
L 278.082047 114.286854 
L 273.601909 117.607314 
L 269.124779 120.923814 
L 264.64765 124.412574 
L 260.167512 127.962714 
L 255.690382 131.719566 
L 251.213253 135.434838 
L 246.733115 139.358406 
L 242.255985 143.299398 
L 237.778856 147.399582 
L 233.298718 151.421358 
L 228.821588 155.709246 
L 224.344459 159.89259 
L 219.864321 164.224434 
L 215.387191 168.505986 
L 210.910062 172.972866 
L 206.429924 177.305106 
L 201.952794 181.804458 
L 197.475665 186.23847 
L 192.995526 190.794846 
L 188.518397 195.18807 
L 184.041268 199.788798 
L 179.561129 204.213702 
L 175.084 208.736418 
L 170.606871 213.12291 
L 166.126732 217.643646 
L 161.649603 221.962422 
L 157.172474 226.372278 
L 152.692335 230.662542 
L 148.215206 235.001118 
L 143.738076 239.127042 
L 139.257938 243.364242 
L 134.780809 247.396314 
L 130.303679 251.43591 
L 125.823541 255.301266 
L 121.346412 259.205826 
L 116.869282 262.885854 
L 112.389144 266.533014 
L 107.896971 270.036822 
L 103.443912 273.458262 
L 98.960765 276.657546 
L 94.477618 279.842178 
L 89.994471 282.84465 
L 85.511324 285.739014 
L 81.058265 288.464286 
L 76.575118 291.110358 
L 72.091971 293.557638 
L 67.608824 295.87701 
" clip-path="url(#p8323636cd7)" style="fill: none; stroke: #008000; stroke-linecap: square"/>
   </g>
   <g id="line2d_91">
    <path d="M 340.358676 92.48547 
L 339.681691 92.76267 
L 339.004706 93.05967 
L 338.327721 93.34083 
L 337.650735 93.62991 
L 336.97375 93.91899 
L 336.296765 94.21401 
L 331.819635 95.399634 
L 327.339497 96.602286 
L 322.862368 97.965714 
L 318.385238 99.644358 
L 313.9051 101.427546 
L 309.427971 103.394874 
L 304.950841 105.538818 
L 300.470703 107.877594 
L 295.993574 110.27973 
L 291.516444 112.901646 
L 287.036306 115.636818 
L 282.559176 118.536726 
L 278.082047 121.46871 
L 273.601909 124.677498 
L 269.124779 127.881138 
L 264.64765 131.250306 
L 260.167512 134.682042 
L 255.690382 138.308214 
L 251.213253 141.897558 
L 246.733115 145.68213 
L 242.255985 149.483334 
L 237.778856 153.432246 
L 233.298718 157.307502 
L 228.821588 161.434218 
L 224.344459 165.463122 
L 219.864321 169.631814 
L 215.387191 173.753778 
L 210.910062 178.055922 
L 206.429924 182.229762 
L 201.952794 186.560022 
L 197.475665 190.827714 
L 192.995526 195.20787 
L 188.518397 199.431606 
L 184.041268 203.849382 
L 179.561129 208.102818 
L 175.084 212.446146 
L 170.606871 216.661962 
L 166.126732 221.004102 
L 161.649603 225.156558 
L 157.172474 229.390986 
L 152.692335 233.514534 
L 148.215206 237.67689 
L 143.738076 241.638078 
L 139.257938 245.70381 
L 134.780809 249.575502 
L 130.303679 253.44957 
L 125.823541 257.159298 
L 121.346412 260.90625 
L 116.869282 264.43857 
L 112.389144 267.930498 
L 107.896971 271.28937 
L 103.443912 274.567854 
L 98.960765 277.63923 
L 94.477618 280.695162 
L 89.994471 283.578438 
L 85.511324 286.356774 
L 81.058265 288.97473 
L 76.575118 291.514674 
L 72.091971 293.865726 
L 67.608824 296.092038 
" clip-path="url(#p8323636cd7)" style="fill: none; stroke: #bf00bf; stroke-linecap: square"/>
   </g>
   <g id="line2d_92">
    <path d="M 336.296765 85.21095 
L 331.819635 86.28411 
L 327.339497 87.37311 
L 322.862368 88.64823 
L 318.385238 90.25599 
L 313.9051 91.973838 
L 309.427971 93.87939 
L 304.950841 95.99205 
L 300.470703 98.30865 
L 295.993574 100.707222 
L 291.516444 103.337454 
L 287.036306 106.09203 
L 282.559176 109.02639 
L 278.082047 112.000746 
L 273.601909 115.272894 
L 269.124779 118.54623 
L 264.64765 121.997766 
L 260.167512 125.517414 
L 255.690382 129.248526 
L 251.213253 132.943602 
L 246.733115 136.852518 
L 242.255985 140.785194 
L 237.778856 144.883002 
L 233.298718 148.906758 
L 228.821588 153.205338 
L 224.344459 157.402542 
L 219.864321 161.754978 
L 215.387191 166.06029 
L 210.910062 170.556474 
L 206.429924 174.91683 
L 201.952794 179.452614 
L 197.475665 183.926226 
L 192.995526 188.530122 
L 188.518397 192.970866 
L 184.041268 197.627826 
L 179.561129 202.109754 
L 175.084 206.694642 
L 170.606871 211.144494 
L 166.126732 215.733738 
L 161.649603 220.117854 
L 157.172474 224.598594 
L 152.692335 228.962514 
L 148.215206 233.377518 
L 143.738076 237.578286 
L 139.257938 241.897854 
L 134.780809 246.010314 
L 130.303679 250.131882 
L 125.823541 254.077626 
L 121.346412 258.06693 
L 116.869282 261.826554 
L 112.389144 265.559646 
L 107.896971 269.148198 
L 103.443912 272.653986 
L 98.960765 275.931678 
L 94.477618 279.195114 
L 89.994471 282.271638 
L 85.511324 285.24045 
L 81.058265 288.03819 
L 76.575118 290.757126 
L 72.091971 293.272914 
L 67.608824 295.658418 
" clip-path="url(#p8323636cd7)" style="fill: none; stroke: #000000; stroke-linecap: square"/>
   </g>
   <g id="line2d_93">
    <path d="M 352.694853 52.34691 
L 350.700003 54.43779 
L 348.422324 58.88091 
L 344.146785 63.28047 
L 339.871247 65.76339 
L 337.879406 66.76527 
L 335.884556 67.85427 
L 333.889706 68.68191 
L 332.749362 69.11751 
L 331.04035 69.81447 
L 322.206444 72.60231 
L 321.351938 72.90723 
L 318.788421 73.77843 
L 317.933915 74.08335 
L 315.367388 74.95455 
L 314.512882 75.25947 
L 313.089709 75.78219 
L 311.663526 76.34847 
L 310.240353 76.87119 
L 308.814171 77.43747 
L 307.390997 77.96019 
L 305.964815 78.52647 
L 304.541641 79.04919 
L 303.115459 79.61547 
L 301.975115 80.05107 
L 296.276403 82.79535 
L 295.421897 83.23095 
L 290.294862 85.71387 
L 287.445506 87.32559 
L 286.305162 87.93543 
L 283.169968 89.72139 
L 282.029624 90.33123 
L 279.751944 91.63803 
L 278.897438 92.11719 
L 276.330912 93.77247 
L 274.6219 94.94859 
L 271.486706 96.99591 
L 270.063532 97.95423 
L 268.068682 99.26103 
L 262.655809 103.24677 
L 254.107741 109.750278 
L 242.138641 119.912826 
L 229.886712 131.377818 
L 217.634782 143.77935 
L 199.684141 163.568658 
L 193.699591 170.472918 
L 180.024488 186.855834 
L 159.224491 212.699982 
L 144.977712 230.542158 
L 126.455394 252.966846 
L 119.047671 261.047226 
L 112.494453 267.981978 
L 101.9395 278.305698 
L 98.539529 281.12403 
L 95.109471 283.942362 
L 91.980294 286.529826 
L 89.994471 287.971662 
L 84.277706 291.735246 
L 79.734382 294.745242 
L 78.861824 295.163418 
L 71.189324 298.382502 
L 67.759265 299.81127 
L 67.759265 299.81127 
" clip-path="url(#p8323636cd7)" style="fill: none; stroke-dasharray: 3.7,1.6; stroke-dashoffset: 0; stroke: #ff0000"/>
   </g>
   <g id="line2d_94">
    <path d="M 348.632941 62.14791 
L 346.668179 65.02287 
L 344.980229 68.63835 
L 344.420588 69.72735 
L 341.050706 73.77843 
L 339.645585 74.95455 
L 337.118174 77.00187 
L 336.275703 77.65527 
L 333.465462 79.26699 
L 332.343171 79.87683 
L 330.93805 80.66091 
L 329.253109 81.27075 
L 327.847988 81.83703 
L 326.442868 82.35975 
L 325.320576 82.79535 
L 323.635635 83.40519 
L 322.230515 83.97147 
L 320.545574 84.58131 
L 319.423282 85.01691 
L 317.738341 85.62675 
L 316.333221 86.19303 
L 314.648279 86.80287 
L 313.522979 87.23847 
L 312.117859 87.76119 
L 310.995568 88.19679 
L 309.590447 88.71951 
L 308.468156 89.15511 
L 307.063035 89.67783 
L 305.940744 90.11343 
L 304.535624 90.63615 
L 303.413332 91.07175 
L 302.008212 91.59447 
L 301.165741 92.03007 
L 290.210615 97.25727 
L 288.805494 98.04135 
L 287.403382 98.78187 
L 285.435612 99.879582 
L 277.570547 104.287854 
L 263.528368 113.587914 
L 253.978362 120.54009 
L 240.495824 131.58255 
L 228.138585 142.69035 
L 218.8684 151.546098 
L 201.456338 169.58865 
L 193.871094 177.808422 
L 179.828915 193.712178 
L 172.243671 202.52001 
L 141.066241 239.24109 
L 129.271653 252.666282 
L 124.49665 257.880414 
L 111.014112 271.427574 
L 102.601441 279.298866 
L 99.773147 281.468154 
L 95.29 284.944242 
L 92.461706 287.11353 
L 90.776765 288.350634 
L 81.810471 293.856618 
L 78.440588 295.686138 
L 73.656559 297.533082 
L 67.759265 299.81127 
L 67.759265 299.81127 
" clip-path="url(#p8323636cd7)" style="fill: none; stroke-dasharray: 3.7,1.6; stroke-dashoffset: 0; stroke: #0000ff"/>
   </g>
   <g id="line2d_95">
    <path d="M 344.571029 74.82387 
L 342.079724 78.87495 
L 340.142041 82.31619 
L 336.8203 86.32371 
L 336.266676 86.88999 
L 330.453629 90.41835 
L 329.069571 90.98463 
L 327.685512 91.50735 
L 326.301453 92.07363 
L 324.917394 92.59635 
L 323.810147 93.03195 
L 322.149276 93.64179 
L 321.042029 94.07739 
L 319.381159 94.68723 
L 318.273912 95.12283 
L 316.613041 95.73267 
L 315.505794 96.16827 
L 313.844924 96.77811 
L 312.460865 97.34439 
L 311.076806 97.86711 
L 309.692747 98.43339 
L 308.308688 98.95611 
L 306.924629 99.52239 
L 305.540571 100.06689 
L 301.111582 101.913834 
L 289.208676 107.829282 
L 277.859394 114.184686 
L 264.572429 122.879262 
L 253.499959 130.855098 
L 243.534735 138.669762 
L 230.524582 149.85597 
L 216.960806 162.37947 
L 204.504276 174.680814 
L 192.324559 187.29579 
L 178.483971 202.263006 
L 159.660771 223.154382 
L 148.5883 235.542846 
L 132.256406 253.11495 
L 124.505676 261.138702 
L 112.602771 272.41203 
L 102.360735 281.315694 
L 94.898853 286.69971 
L 92.401529 288.494382 
L 90.746676 289.609518 
L 86.865294 291.75267 
L 79.373324 295.860378 
L 67.759265 299.889678 
L 67.759265 299.889678 
" clip-path="url(#p8323636cd7)" style="fill: none; stroke-dasharray: 3.7,1.6; stroke-dashoffset: 0; stroke: #008000"/>
   </g>
   <g id="line2d_96">
    <path d="M 340.509118 86.54151 
L 337.783124 90.11343 
L 336.417118 92.16075 
L 333.691124 93.38043 
L 332.872724 93.72891 
L 330.962121 94.55655 
L 329.325321 94.99215 
L 328.236126 95.25351 
L 326.325524 95.77623 
L 325.507124 95.99403 
L 315.144735 99.43527 
L 314.326335 99.74019 
L 313.234132 100.145298 
L 303.687135 104.061342 
L 301.231935 105.154698 
L 289.232747 111.257454 
L 276.959756 118.396938 
L 265.502156 125.998158 
L 252.955362 135.215454 
L 242.592974 143.509278 
L 229.498574 154.904574 
L 222.409785 161.373234 
L 218.317785 165.219582 
L 206.315588 177.01563 
L 187.495397 196.547934 
L 178.222203 206.553666 
L 170.041212 215.470398 
L 147.402824 240.168918 
L 131.037832 257.196522 
L 124.764435 263.443026 
L 115.217438 272.246502 
L 113.036041 274.123938 
L 102.390824 282.970974 
L 90.957294 290.789994 
L 88.219265 292.135998 
L 78.4105 296.766426 
L 74.589294 297.929478 
L 67.759265 300.00729 
L 67.759265 300.00729 
" clip-path="url(#p8323636cd7)" style="fill: none; stroke-dasharray: 3.7,1.6; stroke-dashoffset: 0; stroke: #bf00bf"/>
   </g>
   <g id="line2d_97">
    <path d="M 336.447206 88.02255 
L 335.105271 88.32747 
L 333.760326 88.67595 
L 332.415382 88.98087 
L 331.073447 89.32935 
L 324.354744 90.50547 
L 322.206444 91.11531 
L 321.132294 91.37667 
L 319.519565 91.81227 
L 318.445415 92.07363 
L 316.5649 92.59635 
L 315.49075 92.85771 
L 306.352953 95.90691 
L 305.546588 96.21183 
L 302.056353 97.43151 
L 297.488959 99.52239 
L 296.682594 99.866514 
L 288.889741 103.495062 
L 275.990915 110.534358 
L 265.514191 117.129342 
L 254.228094 125.04855 
L 241.600062 135.028146 
L 228.704244 146.288406 
L 221.717756 152.73093 
L 218.492297 155.814978 
L 208.818929 165.415602 
L 205.596479 168.756654 
L 194.310382 180.661602 
L 178.4599 198.36003 
L 170.667047 207.294186 
L 145.410982 236.710254 
L 130.096071 254.038422 
L 124.183732 260.437386 
L 113.168429 271.58439 
L 101.337735 282.500526 
L 90.596235 290.850978 
L 77.959176 296.831766 
L 69.384029 299.841762 
L 67.759265 300.408042 
L 67.759265 300.408042 
" clip-path="url(#p8323636cd7)" style="fill: none; stroke-dasharray: 3.7,1.6; stroke-dashoffset: 0; stroke: #000000"/>
   </g>
   <g id="patch_3">
    <path d="M 64.6 317.58375 
L 64.6 12.66375 
" style="fill: none; stroke: #000000; stroke-width: 0.8; stroke-linejoin: miter; stroke-linecap: square"/>
   </g>
   <g id="patch_4">
    <path d="M 371.5 317.58375 
L 371.5 12.66375 
" style="fill: none; stroke: #000000; stroke-width: 0.8; stroke-linejoin: miter; stroke-linecap: square"/>
   </g>
   <g id="patch_5">
    <path d="M 64.6 317.58375 
L 371.5 317.58375 
" style="fill: none; stroke: #000000; stroke-width: 0.8; stroke-linejoin: miter; stroke-linecap: square"/>
   </g>
   <g id="patch_6">
    <path d="M 64.6 12.66375 
L 371.5 12.66375 
" style="fill: none; stroke: #000000; stroke-width: 0.8; stroke-linejoin: miter; stroke-linecap: square"/>
   </g>
   <g id="legend_1">
    <g id="patch_7">
     <path d="M 143.954688 312.58375 
L 364.5 312.58375 
Q 366.5 312.58375 366.5 310.58375 
L 366.5 240.685312 
Q 366.5 238.685312 364.5 238.685312 
L 143.954688 238.685312 
Q 141.954688 238.685312 141.954688 240.685312 
L 141.954688 310.58375 
Q 141.954688 312.58375 143.954688 312.58375 
z
" style="fill: #ffffff; opacity: 0.8; stroke: #cccccc; stroke-linejoin: miter"/>
    </g>
    <g id="line2d_98">
     <path d="M 145.954688 246.185312 
L 155.954688 246.185312 
L 165.954688 246.185312 
" style="fill: none; stroke: #ff0000; stroke-linecap: square"/>
    </g>
    <g id="text_22">
     <!-- F-1 (SAM) -->
     <g transform="translate(173.954688 249.685312)scale(0.1 -0.1)">
      <defs>
       <path id="STIXGeneral-Regular-46" d="M 3494 3322 
L 3334 3322 
Q 3264 3757 3094 3875 
Q 2925 3994 2349 3994 
L 1504 3994 
Q 1370 3994 1328 3946 
Q 1286 3898 1286 3744 
L 1286 2355 
L 2195 2355 
Q 2598 2355 2736 2470 
Q 2874 2586 2918 2963 
L 3066 2963 
L 3066 1472 
L 2918 1472 
Q 2880 1862 2745 1977 
Q 2611 2093 2195 2093 
L 1286 2093 
L 1286 717 
Q 1286 352 1392 246 
Q 1498 141 1869 122 
L 1869 0 
L 70 0 
L 70 122 
Q 435 147 534 259 
Q 634 371 634 787 
L 634 3526 
Q 634 3878 538 3984 
Q 442 4090 77 4115 
L 77 4237 
L 3462 4237 
L 3494 3322 
z
" transform="scale(0.015625)"/>
       <path id="STIXGeneral-Regular-2d" d="M 1824 1242 
L 250 1242 
L 250 1645 
L 1824 1645 
L 1824 1242 
z
" transform="scale(0.015625)"/>
       <path id="STIXGeneral-Regular-28" d="M 1946 -1030 
L 1869 -1133 
Q 1126 -710 716 32 
Q 307 774 307 1613 
Q 307 3386 1888 4326 
L 1946 4224 
Q 1293 3667 1075 3126 
Q 858 2586 858 1632 
Q 858 685 1082 96 
Q 1306 -493 1946 -1030 
z
" transform="scale(0.015625)"/>
       <path id="STIXGeneral-Regular-53" d="M 3002 2963 
L 2842 2963 
Q 2733 3360 2579 3565 
Q 2189 4064 1651 4064 
Q 1357 4064 1181 3894 
Q 1005 3725 1005 3456 
Q 1005 3328 1069 3206 
Q 1133 3085 1206 2998 
Q 1280 2912 1465 2784 
Q 1651 2656 1766 2589 
Q 1882 2522 2150 2362 
Q 2669 2061 2905 1763 
Q 3142 1466 3142 1107 
Q 3142 576 2771 243 
Q 2400 -90 1837 -90 
Q 1421 -90 1082 58 
Q 915 128 781 128 
Q 704 128 653 70 
Q 602 13 602 -83 
L 461 -83 
L 275 1274 
L 416 1274 
Q 845 141 1734 141 
Q 2074 141 2285 342 
Q 2496 544 2496 858 
Q 2496 1158 2310 1363 
Q 2003 1696 1235 2106 
Q 454 2522 454 3206 
Q 454 3718 768 4022 
Q 1082 4326 1568 4326 
Q 1907 4326 2240 4186 
Q 2413 4109 2522 4109 
Q 2688 4109 2726 4326 
L 2861 4326 
L 3002 2963 
z
" transform="scale(0.015625)"/>
       <path id="STIXGeneral-Regular-41" d="M 4525 0 
L 2893 0 
L 2893 122 
Q 3149 122 3245 179 
Q 3334 224 3334 333 
Q 3334 499 3213 781 
L 2950 1382 
L 1274 1382 
L 979 653 
Q 922 506 922 384 
Q 922 237 1027 179 
Q 1133 122 1370 122 
L 1370 0 
L 96 0 
L 96 122 
Q 365 147 486 316 
Q 608 486 902 1190 
L 2221 4314 
L 2349 4314 
L 3923 710 
Q 4064 378 4176 262 
Q 4288 147 4525 122 
L 4525 0 
z
M 2861 1645 
L 2118 3405 
L 1382 1645 
L 2861 1645 
z
" transform="scale(0.015625)"/>
       <path id="STIXGeneral-Regular-4d" d="M 5530 0 
L 3738 0 
L 3738 122 
Q 4115 147 4214 265 
Q 4314 384 4314 787 
L 4314 3661 
L 2682 0 
L 2592 0 
L 979 3514 
L 979 966 
Q 979 448 1088 294 
Q 1197 141 1574 122 
L 1574 0 
L 77 0 
L 77 122 
Q 358 141 480 205 
Q 602 269 650 432 
Q 698 595 698 966 
L 698 3514 
Q 698 3878 589 3984 
Q 480 4090 90 4115 
L 90 4237 
L 1357 4237 
L 2835 1024 
L 4250 4237 
L 5523 4237 
L 5523 4115 
Q 5178 4109 5072 3993 
Q 4966 3878 4966 3520 
L 4966 717 
Q 4966 378 5072 262 
Q 5178 147 5530 122 
L 5530 0 
z
" transform="scale(0.015625)"/>
       <path id="STIXGeneral-Regular-29" d="M 186 4224 
L 262 4326 
Q 992 3891 1408 3148 
Q 1824 2406 1824 1581 
Q 1824 -166 243 -1133 
L 186 -1030 
Q 845 -486 1059 54 
Q 1274 595 1274 1562 
Q 1274 2534 1059 3120 
Q 845 3706 186 4224 
z
" transform="scale(0.015625)"/>
      </defs>
      <use xlink:href="#STIXGeneral-Regular-46"/>
      <use xlink:href="#STIXGeneral-Regular-2d" x="55.599991"/>
      <use xlink:href="#STIXGeneral-Regular-31" x="88.899979"/>
      <use xlink:href="#STIXGeneral-Regular-20" x="138.899963"/>
      <use xlink:href="#STIXGeneral-Regular-28" x="163.899948"/>
      <use xlink:href="#STIXGeneral-Regular-53" x="197.199936"/>
      <use xlink:href="#STIXGeneral-Regular-41" x="252.799927"/>
      <use xlink:href="#STIXGeneral-Regular-4d" x="324.999908"/>
      <use xlink:href="#STIXGeneral-Regular-29" x="413.899902"/>
     </g>
    </g>
    <g id="line2d_99">
     <path d="M 145.954688 260.355625 
L 155.954688 260.355625 
L 165.954688 260.355625 
" style="fill: none; stroke: #0000ff; stroke-linecap: square"/>
    </g>
    <g id="text_23">
     <!-- F-2 (SAM) -->
     <g transform="translate(173.954688 263.855625)scale(0.1 -0.1)">
      <use xlink:href="#STIXGeneral-Regular-46"/>
      <use xlink:href="#STIXGeneral-Regular-2d" x="55.599991"/>
      <use xlink:href="#STIXGeneral-Regular-32" x="88.899979"/>
      <use xlink:href="#STIXGeneral-Regular-20" x="138.899963"/>
      <use xlink:href="#STIXGeneral-Regular-28" x="163.899948"/>
      <use xlink:href="#STIXGeneral-Regular-53" x="197.199936"/>
      <use xlink:href="#STIXGeneral-Regular-41" x="252.799927"/>
      <use xlink:href="#STIXGeneral-Regular-4d" x="324.999908"/>
      <use xlink:href="#STIXGeneral-Regular-29" x="413.899902"/>
     </g>
    </g>
    <g id="line2d_100">
     <path d="M 145.954688 274.525937 
L 155.954688 274.525937 
L 165.954688 274.525937 
" style="fill: none; stroke: #008000; stroke-linecap: square"/>
    </g>
    <g id="text_24">
     <!-- F-3 (SAM) -->
     <g transform="translate(173.954688 278.025937)scale(0.1 -0.1)">
      <use xlink:href="#STIXGeneral-Regular-46"/>
      <use xlink:href="#STIXGeneral-Regular-2d" x="55.599991"/>
      <use xlink:href="#STIXGeneral-Regular-33" x="88.899979"/>
      <use xlink:href="#STIXGeneral-Regular-20" x="138.899963"/>
      <use xlink:href="#STIXGeneral-Regular-28" x="163.899948"/>
      <use xlink:href="#STIXGeneral-Regular-53" x="197.199936"/>
      <use xlink:href="#STIXGeneral-Regular-41" x="252.799927"/>
      <use xlink:href="#STIXGeneral-Regular-4d" x="324.999908"/>
      <use xlink:href="#STIXGeneral-Regular-29" x="413.899902"/>
     </g>
    </g>
    <g id="line2d_101">
     <path d="M 145.954688 288.69625 
L 155.954688 288.69625 
L 165.954688 288.69625 
" style="fill: none; stroke: #bf00bf; stroke-linecap: square"/>
    </g>
    <g id="text_25">
     <!-- F-4 (SAM) -->
     <g transform="translate(173.954688 292.19625)scale(0.1 -0.1)">
      <use xlink:href="#STIXGeneral-Regular-46"/>
      <use xlink:href="#STIXGeneral-Regular-2d" x="55.599991"/>
      <use xlink:href="#STIXGeneral-Regular-34" x="88.899979"/>
      <use xlink:href="#STIXGeneral-Regular-20" x="138.899963"/>
      <use xlink:href="#STIXGeneral-Regular-28" x="163.899948"/>
      <use xlink:href="#STIXGeneral-Regular-53" x="197.199936"/>
      <use xlink:href="#STIXGeneral-Regular-41" x="252.799927"/>
      <use xlink:href="#STIXGeneral-Regular-4d" x="324.999908"/>
      <use xlink:href="#STIXGeneral-Regular-29" x="413.899902"/>
     </g>
    </g>
    <g id="line2d_102">
     <path d="M 145.954688 302.866562 
L 155.954688 302.866562 
L 165.954688 302.866562 
" style="fill: none; stroke: #000000; stroke-linecap: square"/>
    </g>
    <g id="text_26">
     <!-- F-5 (SAM) -->
     <g transform="translate(173.954688 306.366562)scale(0.1 -0.1)">
      <use xlink:href="#STIXGeneral-Regular-46"/>
      <use xlink:href="#STIXGeneral-Regular-2d" x="55.599991"/>
      <use xlink:href="#STIXGeneral-Regular-35" x="88.899979"/>
      <use xlink:href="#STIXGeneral-Regular-20" x="138.899963"/>
      <use xlink:href="#STIXGeneral-Regular-28" x="163.899948"/>
      <use xlink:href="#STIXGeneral-Regular-53" x="197.199936"/>
      <use xlink:href="#STIXGeneral-Regular-41" x="252.799927"/>
      <use xlink:href="#STIXGeneral-Regular-4d" x="324.999908"/>
      <use xlink:href="#STIXGeneral-Regular-29" x="413.899902"/>
     </g>
    </g>
    <g id="line2d_103">
     <path d="M 238.673438 246.185312 
L 248.673438 246.185312 
L 258.673438 246.185312 
" style="fill: none; stroke-dasharray: 3.7,1.6; stroke-dashoffset: 0; stroke: #ff0000"/>
    </g>
    <g id="text_27">
     <!-- F-6 (Griffin/Pronghorn) -->
     <g transform="translate(266.673438 249.685312)scale(0.1 -0.1)">
      <defs>
       <path id="STIXGeneral-Regular-47" d="M 4538 2266 
L 4538 2150 
Q 4256 2125 4173 2035 
Q 4090 1946 4090 1638 
L 4090 358 
Q 3539 -90 2464 -90 
Q 1965 -90 1507 89 
Q 1050 269 736 595 
Q 205 1152 205 2093 
Q 205 3155 890 3776 
Q 1491 4326 2419 4326 
Q 2829 4326 3270 4179 
Q 3443 4115 3552 4115 
Q 3654 4115 3731 4176 
Q 3808 4237 3840 4326 
L 3981 4326 
L 4032 2976 
L 3885 2976 
Q 3680 3475 3430 3718 
Q 3059 4070 2496 4070 
Q 1856 4070 1427 3629 
Q 934 3136 934 2074 
Q 934 1190 1395 678 
Q 1856 166 2618 166 
Q 2982 166 3225 281 
Q 3469 397 3469 557 
L 3469 1562 
Q 3469 1933 3376 2025 
Q 3283 2118 2899 2150 
L 2899 2266 
L 4538 2266 
z
" transform="scale(0.015625)"/>
       <path id="STIXGeneral-Regular-6e" d="M 3104 0 
L 1773 0 
L 1779 96 
Q 2016 115 2096 233 
Q 2176 352 2176 672 
L 2176 1946 
Q 2176 2592 1709 2592 
Q 1549 2592 1408 2515 
Q 1267 2438 1050 2227 
L 1050 461 
Q 1050 269 1136 192 
Q 1222 115 1466 96 
L 1466 0 
L 115 0 
L 115 96 
Q 358 115 435 214 
Q 512 314 512 602 
L 512 2157 
Q 512 2394 467 2483 
Q 422 2573 288 2573 
Q 160 2573 102 2547 
L 102 2656 
Q 550 2784 979 2944 
L 1030 2925 
L 1030 2426 
L 1037 2426 
Q 1491 2944 1958 2944 
Q 2323 2944 2518 2688 
Q 2714 2432 2714 1958 
L 2714 544 
Q 2714 288 2790 205 
Q 2867 122 3104 96 
L 3104 0 
z
" transform="scale(0.015625)"/>
       <path id="STIXGeneral-Regular-2f" d="M 1837 4326 
L 378 -90 
L -58 -90 
L 1408 4326 
L 1837 4326 
z
" transform="scale(0.015625)"/>
       <path id="STIXGeneral-Regular-50" d="M 102 4237 
L 1760 4237 
Q 2669 4237 3149 3834 
Q 3469 3565 3469 3072 
Q 3469 2560 3104 2234 
Q 2835 1990 2553 1916 
Q 2272 1843 1734 1843 
Q 1549 1843 1293 1862 
L 1293 717 
Q 1293 352 1398 246 
Q 1504 141 1894 122 
L 1894 0 
L 102 0 
L 102 122 
Q 474 147 557 256 
Q 640 365 640 781 
L 640 3526 
Q 640 3885 547 3987 
Q 454 4090 102 4115 
L 102 4237 
z
M 1293 3770 
L 1293 2118 
Q 1510 2099 1683 2099 
Q 2202 2099 2486 2352 
Q 2771 2605 2771 3040 
Q 2771 3558 2476 3779 
Q 2182 4000 1517 4000 
Q 1382 4000 1337 3952 
Q 1293 3904 1293 3770 
z
" transform="scale(0.015625)"/>
       <path id="STIXGeneral-Regular-67" d="M 3008 2483 
L 2477 2483 
Q 2598 2208 2598 1946 
Q 2598 1453 2265 1203 
Q 1933 954 1600 954 
Q 1530 954 1357 973 
L 1235 986 
Q 1107 947 979 812 
Q 851 678 851 582 
Q 851 435 1350 410 
L 2176 371 
Q 2528 358 2739 172 
Q 2950 -13 2950 -314 
Q 2950 -685 2566 -986 
Q 2035 -1395 1286 -1395 
Q 826 -1395 502 -1212 
Q 179 -1030 179 -774 
Q 179 -595 320 -419 
Q 461 -243 806 6 
Q 602 102 534 172 
Q 467 243 467 346 
Q 467 531 762 787 
Q 909 915 1037 1043 
Q 717 1203 579 1401 
Q 442 1600 442 1901 
Q 442 2336 752 2640 
Q 1062 2944 1510 2944 
Q 1766 2944 2022 2848 
L 2163 2797 
Q 2349 2733 2515 2733 
L 3008 2733 
L 3008 2483 
z
M 973 2163 
L 973 2144 
Q 973 1683 1155 1398 
Q 1338 1114 1632 1114 
Q 1850 1114 1978 1270 
Q 2106 1427 2106 1690 
Q 2106 2112 1914 2464 
Q 1754 2765 1446 2765 
Q 1222 2765 1097 2605 
Q 973 2445 973 2163 
z
M 2771 -410 
Q 2771 -230 2595 -163 
Q 2419 -96 1978 -96 
Q 1344 -96 941 -13 
Q 749 -243 688 -348 
Q 627 -454 627 -563 
Q 627 -774 880 -902 
Q 1133 -1030 1555 -1030 
Q 2099 -1030 2435 -860 
Q 2771 -691 2771 -410 
z
" transform="scale(0.015625)"/>
       <path id="STIXGeneral-Regular-68" d="M 3117 0 
L 1760 0 
L 1760 96 
Q 2042 128 2118 224 
Q 2195 320 2195 653 
L 2195 1920 
Q 2195 2598 1722 2598 
Q 1530 2598 1370 2508 
Q 1210 2419 1005 2195 
L 1005 653 
Q 1005 320 1081 224 
Q 1158 128 1440 96 
L 1440 0 
L 58 0 
L 58 96 
Q 333 134 400 224 
Q 467 314 467 653 
L 467 3667 
Q 467 3872 406 3933 
Q 346 3994 141 3994 
Q 83 3994 64 3987 
L 64 4090 
L 237 4141 
Q 730 4288 973 4371 
L 1005 4352 
L 1005 2406 
Q 1229 2694 1446 2819 
Q 1664 2944 1946 2944 
Q 2733 2944 2733 1926 
L 2733 653 
Q 2733 320 2793 233 
Q 2854 147 3117 96 
L 3117 0 
z
" transform="scale(0.015625)"/>
      </defs>
      <use xlink:href="#STIXGeneral-Regular-46"/>
      <use xlink:href="#STIXGeneral-Regular-2d" x="55.599991"/>
      <use xlink:href="#STIXGeneral-Regular-36" x="88.899979"/>
      <use xlink:href="#STIXGeneral-Regular-20" x="138.899963"/>
      <use xlink:href="#STIXGeneral-Regular-28" x="163.899948"/>
      <use xlink:href="#STIXGeneral-Regular-47" x="197.199936"/>
      <use xlink:href="#STIXGeneral-Regular-72" x="269.399918"/>
      <use xlink:href="#STIXGeneral-Regular-69" x="302.699905"/>
      <use xlink:href="#STIXGeneral-Regular-66" x="330.499893"/>
      <use xlink:href="#STIXGeneral-Regular-66" x="363.799881"/>
      <use xlink:href="#STIXGeneral-Regular-69" x="397.099869"/>
      <use xlink:href="#STIXGeneral-Regular-6e" x="424.899857"/>
      <use xlink:href="#STIXGeneral-Regular-2f" x="474.899841"/>
      <use xlink:href="#STIXGeneral-Regular-50" x="502.699829"/>
      <use xlink:href="#STIXGeneral-Regular-72" x="558.399826"/>
      <use xlink:href="#STIXGeneral-Regular-6f" x="591.699814"/>
      <use xlink:href="#STIXGeneral-Regular-6e" x="641.699799"/>
      <use xlink:href="#STIXGeneral-Regular-67" x="691.699783"/>
      <use xlink:href="#STIXGeneral-Regular-68" x="741.699768"/>
      <use xlink:href="#STIXGeneral-Regular-6f" x="791.699753"/>
      <use xlink:href="#STIXGeneral-Regular-72" x="841.699738"/>
      <use xlink:href="#STIXGeneral-Regular-6e" x="874.999725"/>
      <use xlink:href="#STIXGeneral-Regular-29" x="924.99971"/>
     </g>
    </g>
    <g id="line2d_104">
     <path d="M 238.673438 260.365 
L 248.673438 260.365 
L 258.673438 260.365 
" style="fill: none; stroke-dasharray: 3.7,1.6; stroke-dashoffset: 0; stroke: #0000ff"/>
    </g>
    <g id="text_28">
     <!-- F-6 (Griffin/Pronghorn) -->
     <g transform="translate(266.673438 263.865)scale(0.1 -0.1)">
      <use xlink:href="#STIXGeneral-Regular-46"/>
      <use xlink:href="#STIXGeneral-Regular-2d" x="55.599991"/>
      <use xlink:href="#STIXGeneral-Regular-36" x="88.899979"/>
      <use xlink:href="#STIXGeneral-Regular-20" x="138.899963"/>
      <use xlink:href="#STIXGeneral-Regular-28" x="163.899948"/>
      <use xlink:href="#STIXGeneral-Regular-47" x="197.199936"/>
      <use xlink:href="#STIXGeneral-Regular-72" x="269.399918"/>
      <use xlink:href="#STIXGeneral-Regular-69" x="302.699905"/>
      <use xlink:href="#STIXGeneral-Regular-66" x="330.499893"/>
      <use xlink:href="#STIXGeneral-Regular-66" x="363.799881"/>
      <use xlink:href="#STIXGeneral-Regular-69" x="397.099869"/>
      <use xlink:href="#STIXGeneral-Regular-6e" x="424.899857"/>
      <use xlink:href="#STIXGeneral-Regular-2f" x="474.899841"/>
      <use xlink:href="#STIXGeneral-Regular-50" x="502.699829"/>
      <use xlink:href="#STIXGeneral-Regular-72" x="558.399826"/>
      <use xlink:href="#STIXGeneral-Regular-6f" x="591.699814"/>
      <use xlink:href="#STIXGeneral-Regular-6e" x="641.699799"/>
      <use xlink:href="#STIXGeneral-Regular-67" x="691.699783"/>
      <use xlink:href="#STIXGeneral-Regular-68" x="741.699768"/>
      <use xlink:href="#STIXGeneral-Regular-6f" x="791.699753"/>
      <use xlink:href="#STIXGeneral-Regular-72" x="841.699738"/>
      <use xlink:href="#STIXGeneral-Regular-6e" x="874.999725"/>
      <use xlink:href="#STIXGeneral-Regular-29" x="924.99971"/>
     </g>
    </g>
    <g id="line2d_105">
     <path d="M 238.673438 274.544688 
L 248.673438 274.544688 
L 258.673438 274.544688 
" style="fill: none; stroke-dasharray: 3.7,1.6; stroke-dashoffset: 0; stroke: #008000"/>
    </g>
    <g id="text_29">
     <!-- F-6 (Griffin/Pronghorn) -->
     <g transform="translate(266.673438 278.044688)scale(0.1 -0.1)">
      <use xlink:href="#STIXGeneral-Regular-46"/>
      <use xlink:href="#STIXGeneral-Regular-2d" x="55.599991"/>
      <use xlink:href="#STIXGeneral-Regular-36" x="88.899979"/>
      <use xlink:href="#STIXGeneral-Regular-20" x="138.899963"/>
      <use xlink:href="#STIXGeneral-Regular-28" x="163.899948"/>
      <use xlink:href="#STIXGeneral-Regular-47" x="197.199936"/>
      <use xlink:href="#STIXGeneral-Regular-72" x="269.399918"/>
      <use xlink:href="#STIXGeneral-Regular-69" x="302.699905"/>
      <use xlink:href="#STIXGeneral-Regular-66" x="330.499893"/>
      <use xlink:href="#STIXGeneral-Regular-66" x="363.799881"/>
      <use xlink:href="#STIXGeneral-Regular-69" x="397.099869"/>
      <use xlink:href="#STIXGeneral-Regular-6e" x="424.899857"/>
      <use xlink:href="#STIXGeneral-Regular-2f" x="474.899841"/>
      <use xlink:href="#STIXGeneral-Regular-50" x="502.699829"/>
      <use xlink:href="#STIXGeneral-Regular-72" x="558.399826"/>
      <use xlink:href="#STIXGeneral-Regular-6f" x="591.699814"/>
      <use xlink:href="#STIXGeneral-Regular-6e" x="641.699799"/>
      <use xlink:href="#STIXGeneral-Regular-67" x="691.699783"/>
      <use xlink:href="#STIXGeneral-Regular-68" x="741.699768"/>
      <use xlink:href="#STIXGeneral-Regular-6f" x="791.699753"/>
      <use xlink:href="#STIXGeneral-Regular-72" x="841.699738"/>
      <use xlink:href="#STIXGeneral-Regular-6e" x="874.999725"/>
      <use xlink:href="#STIXGeneral-Regular-29" x="924.99971"/>
     </g>
    </g>
    <g id="line2d_106">
     <path d="M 238.673438 288.724375 
L 248.673438 288.724375 
L 258.673438 288.724375 
" style="fill: none; stroke-dasharray: 3.7,1.6; stroke-dashoffset: 0; stroke: #bf00bf"/>
    </g>
    <g id="text_30">
     <!-- F-6 (Griffin/Pronghorn) -->
     <g transform="translate(266.673438 292.224375)scale(0.1 -0.1)">
      <use xlink:href="#STIXGeneral-Regular-46"/>
      <use xlink:href="#STIXGeneral-Regular-2d" x="55.599991"/>
      <use xlink:href="#STIXGeneral-Regular-36" x="88.899979"/>
      <use xlink:href="#STIXGeneral-Regular-20" x="138.899963"/>
      <use xlink:href="#STIXGeneral-Regular-28" x="163.899948"/>
      <use xlink:href="#STIXGeneral-Regular-47" x="197.199936"/>
      <use xlink:href="#STIXGeneral-Regular-72" x="269.399918"/>
      <use xlink:href="#STIXGeneral-Regular-69" x="302.699905"/>
      <use xlink:href="#STIXGeneral-Regular-66" x="330.499893"/>
      <use xlink:href="#STIXGeneral-Regular-66" x="363.799881"/>
      <use xlink:href="#STIXGeneral-Regular-69" x="397.099869"/>
      <use xlink:href="#STIXGeneral-Regular-6e" x="424.899857"/>
      <use xlink:href="#STIXGeneral-Regular-2f" x="474.899841"/>
      <use xlink:href="#STIXGeneral-Regular-50" x="502.699829"/>
      <use xlink:href="#STIXGeneral-Regular-72" x="558.399826"/>
      <use xlink:href="#STIXGeneral-Regular-6f" x="591.699814"/>
      <use xlink:href="#STIXGeneral-Regular-6e" x="641.699799"/>
      <use xlink:href="#STIXGeneral-Regular-67" x="691.699783"/>
      <use xlink:href="#STIXGeneral-Regular-68" x="741.699768"/>
      <use xlink:href="#STIXGeneral-Regular-6f" x="791.699753"/>
      <use xlink:href="#STIXGeneral-Regular-72" x="841.699738"/>
      <use xlink:href="#STIXGeneral-Regular-6e" x="874.999725"/>
      <use xlink:href="#STIXGeneral-Regular-29" x="924.99971"/>
     </g>
    </g>
    <g id="line2d_107">
     <path d="M 238.673438 302.904063 
L 248.673438 302.904063 
L 258.673438 302.904063 
" style="fill: none; stroke-dasharray: 3.7,1.6; stroke-dashoffset: 0; stroke: #000000"/>
    </g>
    <g id="text_31">
     <!-- F-6 (Griffin/Pronghorn) -->
     <g transform="translate(266.673438 306.404063)scale(0.1 -0.1)">
      <use xlink:href="#STIXGeneral-Regular-46"/>
      <use xlink:href="#STIXGeneral-Regular-2d" x="55.599991"/>
      <use xlink:href="#STIXGeneral-Regular-36" x="88.899979"/>
      <use xlink:href="#STIXGeneral-Regular-20" x="138.899963"/>
      <use xlink:href="#STIXGeneral-Regular-28" x="163.899948"/>
      <use xlink:href="#STIXGeneral-Regular-47" x="197.199936"/>
      <use xlink:href="#STIXGeneral-Regular-72" x="269.399918"/>
      <use xlink:href="#STIXGeneral-Regular-69" x="302.699905"/>
      <use xlink:href="#STIXGeneral-Regular-66" x="330.499893"/>
      <use xlink:href="#STIXGeneral-Regular-66" x="363.799881"/>
      <use xlink:href="#STIXGeneral-Regular-69" x="397.099869"/>
      <use xlink:href="#STIXGeneral-Regular-6e" x="424.899857"/>
      <use xlink:href="#STIXGeneral-Regular-2f" x="474.899841"/>
      <use xlink:href="#STIXGeneral-Regular-50" x="502.699829"/>
      <use xlink:href="#STIXGeneral-Regular-72" x="558.399826"/>
      <use xlink:href="#STIXGeneral-Regular-6f" x="591.699814"/>
      <use xlink:href="#STIXGeneral-Regular-6e" x="641.699799"/>
      <use xlink:href="#STIXGeneral-Regular-67" x="691.699783"/>
      <use xlink:href="#STIXGeneral-Regular-68" x="741.699768"/>
      <use xlink:href="#STIXGeneral-Regular-6f" x="791.699753"/>
      <use xlink:href="#STIXGeneral-Regular-72" x="841.699738"/>
      <use xlink:href="#STIXGeneral-Regular-6e" x="874.999725"/>
      <use xlink:href="#STIXGeneral-Regular-29" x="924.99971"/>
     </g>
    </g>
   </g>
  </g>
 </g>
 <defs>
  <clipPath id="p8323636cd7">
   <rect x="64.6" y="12.66375" width="306.9" height="304.92"/>
  </clipPath>
 </defs>
</svg>
